<?xml version="1.0" standalone="no"?>
<!DOCTYPE svg PUBLIC "-//W3C//DTD SVG 20010904//EN"
 "http://www.w3.org/TR/2001/REC-SVG-20010904/DTD/svg10.dtd">
<svg version="1.0" xmlns="http://www.w3.org/2000/svg"
 width="6269.000000pt" height="1987.000000pt" viewBox="0 0 6269.000000 1987.000000"
 preserveAspectRatio="xMidYMid meet">

<g transform="translate(0.000000,1987.000000) scale(0.100000,-0.100000)"
fill="#000000" stroke="none">
<path d="M7840 17490 c-1360 -88 -2606 -510 -3736 -1266 -580 -388 -1144 -892
-1568 -1399 -961 -1149 -1466 -2227 -1612 -3440 -21 -175 -32 -1073 -33 -2655
-1 -1320 -3 -1279 50 -1382 32 -62 112 -141 176 -174 54 -27 66 -29 168 -29
104 0 114 2 176 32 80 39 150 111 187 191 l27 57 5 1860 5 1860 26 55 c36 77
80 124 147 157 144 71 326 3 396 -147 21 -45 21 -50 26 -1405 l5 -1360 22 -57
c70 -186 225 -288 421 -275 176 11 315 123 373 302 10 32 14 416 18 1895 6
1822 6 1856 26 1895 28 57 97 120 152 139 146 50 292 -12 357 -153 l21 -46 5
-2755 5 -2755 27 -59 c42 -88 93 -151 158 -194 245 -164 580 -34 655 253 13
52 15 307 15 2177 0 2054 1 2119 19 2168 26 69 71 121 133 155 44 24 65 29
123 29 116 1 211 -59 259 -163 l21 -46 5 -1430 c5 -1572 0 -1449 64 -1558 96
-164 294 -243 482 -192 137 37 252 147 294 282 20 64 20 91 20 1254 0 836 3
1204 11 1241 27 128 124 248 231 284 171 59 359 -20 440 -184 l33 -67 5 -1050
c4 -723 9 -1059 16 -1080 46 -126 126 -218 232 -268 56 -26 82 -32 158 -35
111 -5 175 11 261 67 70 45 135 125 165 203 16 42 22 90 29 223 17 367 98 753
289 1380 109 357 195 740 244 1085 55 381 60 470 61 1025 1 286 5 536 10 555
23 104 115 213 212 251 85 34 198 32 275 -3 80 -37 149 -105 184 -181 l29 -62
0 -970 c0 -948 -1 -974 -22 -1131 -88 -633 -288 -1265 -603 -1903 -210 -426
-458 -833 -663 -1089 -192 -239 -355 -476 -682 -992 -435 -686 -630 -948 -974
-1310 -86 -91 -247 -262 -358 -380 -236 -253 -503 -517 -623 -617 -506 -419
-1002 -618 -1730 -694 -63 -6 -241 -12 -395 -13 -273 -1 -281 -2 -328 -25 -60
-29 -93 -78 -105 -154 -9 -58 -1 -141 16 -174 23 -42 65 -63 227 -116 1110
-363 2436 -608 3820 -707 485 -34 675 -41 1260 -47 1080 -11 2065 48 3065 183
1748 235 3182 669 3611 1094 123 122 150 214 92 308 -63 102 -172 119 -328 50
-129 -57 -329 -98 -735 -152 -1059 -141 -2417 -184 -3375 -105 -840 68 -1470
231 -1835 474 -123 81 -251 214 -303 313 -179 340 -48 759 402 1287 101 118
304 323 679 683 381 365 475 432 787 563 317 132 694 249 1155 357 189 45 967
212 984 212 3 0 6 -408 6 -907 0 -541 4 -936 10 -978 20 -140 109 -270 229
-334 255 -136 574 26 621 315 6 35 10 478 10 1094 l0 1036 78 23 c120 35 286
106 414 177 64 35 120 64 123 64 3 0 5 -119 5 -264 0 -237 2 -271 20 -330 42
-136 156 -253 282 -291 174 -51 384 22 481 168 75 113 71 69 77 792 5 646 5
650 27 691 57 107 183 153 288 105 51 -23 111 -89 124 -138 7 -25 11 -243 11
-630 0 -544 1 -596 18 -650 36 -114 107 -197 212 -247 59 -28 74 -31 165 -31
93 0 105 2 167 33 80 39 148 102 181 168 26 52 155 437 206 614 258 900 324
1936 185 2910 -195 1376 -690 2469 -1664 3675 -955 1183 -2272 2063 -3725
2490 -486 143 -959 231 -1495 281 -204 18 -889 27 -1100 14z m2254 -4094 c52
-30 92 -79 112 -133 11 -31 13 -289 14 -1404 0 -886 4 -1385 10 -1420 26 -135
121 -264 238 -321 57 -28 78 -33 161 -36 79 -3 107 0 160 18 117 39 200 114
255 229 l31 66 5 1220 c5 1128 6 1222 22 1251 74 136 262 134 329 -3 l24 -48
-2 -2269 c-1 -1248 -5 -2272 -10 -2276 -13 -12 -375 -78 -638 -115 -408 -58
-851 -101 -1154 -112 -160 -5 -184 -4 -179 8 12 31 69 292 102 469 176 939
229 2095 151 3295 -13 185 -15 374 -13 830 l3 590 27 50 c32 61 69 97 128 125
63 29 161 23 224 -14z m3098 -1606 c59 -27 120 -86 148 -140 12 -23 25 -77 30
-123 6 -47 10 -589 10 -1262 l0 -1181 -52 -50 c-131 -125 -276 -228 -439 -309
-60 -30 -113 -55 -119 -55 -7 0 -10 474 -10 1448 0 1628 -6 1500 77 1592 46
51 101 86 158 101 50 13 146 3 197 -21z"/>
<path d="M26790 14456 c-803 -103 -1492 -574 -1844 -1259 -104 -204 -173 -415
-212 -652 -26 -153 -26 -529 -1 -700 126 -844 685 -1549 1470 -1852 469 -181
996 -210 1494 -82 321 82 695 275 947 488 102 86 248 235 321 326 219 275 384
623 449 945 192 957 -218 1916 -1042 2437 -186 117 -467 238 -682 293 -178 45
-317 62 -560 65 -158 3 -269 0 -340 -9z m605 -659 c383 -73 678 -221 933 -471
247 -240 404 -535 464 -866 16 -87 20 -157 20 -290 0 -289 -44 -478 -172 -735
-90 -181 -178 -302 -320 -445 -143 -142 -264 -229 -445 -319 -298 -148 -615
-210 -934 -182 -624 55 -1161 404 -1430 931 -275 536 -210 1231 161 1732 268
361 690 597 1175 658 103 13 455 5 548 -13z"/>
<path d="M38745 14464 c-184 -19 -392 -63 -555 -118 -867 -290 -1476 -1014
-1580 -1876 -16 -136 -14 -442 5 -585 60 -462 242 -875 543 -1235 311 -372
802 -663 1287 -764 188 -39 304 -50 520 -50 296 0 512 34 775 120 339 111 742
366 978 617 l52 56 -197 268 -198 269 -118 -123 c-174 -180 -302 -276 -504
-378 -683 -343 -1541 -191 -2079 366 -216 225 -349 474 -416 783 -20 88 -22
131 -22 326 0 206 2 236 27 351 47 221 130 416 258 609 88 133 292 335 425
423 235 155 511 254 804 288 129 14 413 7 529 -15 337 -63 640 -209 891 -430
47 -41 88 -72 92 -68 3 4 97 113 207 242 l202 235 -68 63 c-335 313 -791 534
-1253 607 -101 16 -507 29 -605 19z"/>
<path d="M59197 14455 c-501 -61 -988 -298 -1341 -652 -309 -310 -512 -691
-601 -1128 l-22 -110 -307 -3 -306 -2 0 890 0 890 -320 0 -320 0 0 -2205 0
-2205 320 0 320 0 2 988 3 987 297 3 296 2 7 -42 c51 -334 107 -522 230 -773
287 -583 783 -998 1410 -1180 308 -89 703 -106 1042 -45 693 125 1295 575
1610 1205 108 215 196 503 229 750 20 157 23 495 5 637 -73 573 -347 1094
-766 1455 -349 302 -788 493 -1247 542 -129 14 -407 12 -541 -4z m593 -659
c182 -36 314 -83 490 -173 294 -150 533 -389 684 -683 126 -244 175 -437 183
-715 10 -333 -45 -578 -193 -865 -110 -214 -291 -424 -485 -563 -111 -80 -332
-193 -450 -230 -425 -135 -852 -107 -1244 83 -413 199 -727 553 -879 989 -58
165 -77 274 -83 472 -11 336 41 581 179 852 232 455 682 765 1226 842 131 19
456 13 572 -9z"/>
<path d="M20062 12138 l3 -2203 323 -3 322 -2 0 1880 0 1880 1175 0 1175 0 0
-1880 0 -1880 320 0 320 0 0 2205 0 2205 -1820 0 -1820 0 2 -2202z"/>
<path d="M30829 14318 c5 -13 64 -153 131 -313 67 -159 124 -296 127 -302 4
-10 67 -13 247 -15 l242 -3 -32 -176 c-217 -1175 -593 -2075 -1183 -2831 l-76
-98 -322 0 -323 0 0 -660 0 -660 320 0 320 0 0 335 0 335 1710 0 1710 0 0
-335 0 -335 320 0 320 0 0 660 0 660 -190 0 -190 0 0 1880 0 1880 -1570 0
-1570 0 9 -22z m2481 -2183 l0 -1555 -1115 0 c-613 0 -1115 2 -1115 4 0 3 33
56 73 118 498 765 944 1999 1062 2936 l7 52 544 0 544 0 0 -1555z"/>
<path d="M41712 12138 l3 -2203 1680 0 1680 0 3 323 2 322 -1360 0 -1360 0 0
561 0 560 83 39 c100 47 227 83 367 106 89 15 200 18 723 21 l617 4 0 325 0
324 -567 0 c-786 0 -922 -15 -1147 -126 -38 -18 -71 -34 -73 -34 -2 0 -3 299
-3 665 l0 665 1230 0 1230 0 0 325 0 325 -1555 0 -1555 0 2 -2202z"/>
<path d="M46110 12135 l0 -2205 320 0 320 0 0 976 0 975 56 25 c131 58 323 94
500 94 63 0 259 -17 460 -39 686 -78 752 -84 959 -85 232 0 363 17 517 68 l98
33 2 -1021 3 -1021 323 -3 322 -2 0 2205 0 2205 -325 0 -325 0 0 -854 0 -855
-53 -20 c-201 -74 -456 -103 -732 -82 -82 7 -375 37 -650 67 -458 51 -513 55
-655 50 -189 -6 -328 -35 -482 -101 -17 -7 -18 40 -18 894 l0 901 -320 0 -320
0 0 -2205z"/>
<path d="M51290 12134 l0 -2205 1228 4 c1337 4 1312 3 1581 63 416 93 725 331
868 667 62 147 84 265 90 489 6 220 -4 335 -43 479 -115 429 -434 709 -944
828 -200 47 -293 53 -960 61 -578 7 -645 10 -745 28 -136 26 -223 52 -342 104
l-93 40 0 824 0 824 -320 0 -320 0 0 -2206z m870 -194 c170 -58 227 -62 905
-70 386 -5 648 -12 693 -20 349 -55 553 -204 619 -451 24 -90 21 -271 -5 -361
-57 -199 -243 -360 -482 -418 -157 -37 -272 -41 -1130 -38 l-825 3 -3 728 -2
727 70 -35 c39 -20 111 -49 160 -65z"/>
<path d="M20062 5728 l3 -2203 321 -3 320 -2 1290 1694 c709 932 1292 1695
1297 1695 4 1 7 -762 7 -1694 l0 -1695 320 0 320 0 0 2205 0 2205 -324 0 -323
0 -1289 -1692 -1289 -1692 -3 1692 -2 1692 -325 0 -325 0 2 -2202z"/>
<path d="M25240 5725 l0 -2205 1128 0 c671 0 1182 4 1262 10 564 43 955 234
1185 579 126 190 168 347 169 626 0 201 -14 295 -65 455 -94 289 -235 479
-461 619 l-77 48 62 49 c217 173 340 505 324 879 -25 592 -356 979 -959 1118
-92 21 -108 21 -1330 24 l-1238 4 0 -2206z m2480 1531 c285 -80 402 -238 402
-541 0 -202 -48 -331 -163 -439 -71 -68 -151 -112 -254 -142 -52 -15 -135 -18
-645 -24 -667 -9 -769 -17 -955 -77 -44 -14 -110 -41 -147 -59 -37 -19 -70
-34 -73 -34 -3 0 -5 302 -5 670 l0 671 888 -3 c823 -3 892 -5 952 -22z m16
-1819 c205 -37 333 -95 442 -200 116 -113 162 -230 162 -412 0 -169 -39 -269
-151 -389 -111 -118 -244 -191 -437 -238 -85 -21 -111 -22 -979 -25 l-893 -4
0 556 0 556 73 34 c162 74 338 115 572 134 61 5 337 8 615 7 413 -3 522 -6
596 -19z"/>
<path d="M30050 5725 l0 -2205 1038 0 c1064 0 1233 5 1452 40 462 75 772 267
959 595 111 194 162 478 140 783 -18 259 -75 442 -195 623 -157 238 -471 426
-834 498 -194 38 -273 43 -815 51 -580 8 -652 14 -833 66 -48 14 -129 43 -179
66 l-93 40 0 824 0 824 -320 0 -320 0 0 -2205z m915 -210 c149 -41 228 -47
780 -55 559 -8 626 -13 781 -61 225 -69 380 -213 429 -400 39 -147 24 -335
-36 -458 -49 -100 -169 -216 -279 -269 -197 -95 -302 -104 -1225 -100 l-720 3
-3 727 -2 727 92 -44 c51 -25 134 -56 183 -70z"/>
<path d="M34210 5725 l0 -2205 315 0 315 0 0 2205 0 2205 -315 0 -315 0 0
-2205z"/>
<path d="M55530 4473 c0 -45 41 -105 93 -137 41 -25 58 -29 120 -30 122 -1
208 59 224 158 6 36 5 36 -31 36 -32 0 -36 -3 -36 -25 0 -13 -13 -40 -30 -58
-77 -88 -235 -59 -271 50 -9 27 -16 33 -40 33 -25 0 -29 -4 -29 -27z"/>
<path d="M51975 3949 l-210 -270 -3 246 -2 245 -35 0 -35 0 0 -346 0 -347 83
105 c45 58 138 178 207 266 69 89 128 162 133 162 4 0 7 -108 7 -240 l0 -240
35 0 35 0 0 345 c0 190 -1 345 -2 345 -2 -1 -97 -122 -213 -271z"/>
<path d="M55785 3949 l-210 -270 -3 246 -2 245 -35 0 -35 0 0 -346 0 -347 83
105 c45 58 138 178 207 266 69 89 128 161 133 162 4 0 7 -108 7 -240 l0 -240
35 0 35 0 0 345 c0 190 -1 345 -2 345 -2 -1 -97 -122 -213 -271z"/>
<path d="M37453 4150 c-31 -18 -64 -48 -80 -72 l-28 -42 -3 67 -3 67 -39 0
-40 0 0 -475 0 -475 40 0 40 0 0 221 0 221 33 -44 c62 -81 139 -115 239 -104
199 20 320 218 264 433 -39 154 -141 233 -300 233 -61 0 -79 -5 -123 -30z
m214 -56 c55 -20 116 -89 134 -151 32 -110 6 -226 -66 -296 -92 -89 -224 -88
-316 3 -60 60 -83 127 -77 219 6 78 30 131 86 184 66 64 139 76 239 41z"/>
<path d="M38228 4165 c-93 -35 -168 -114 -198 -209 -19 -61 -9 -211 19 -264
34 -66 87 -119 149 -149 49 -23 70 -27 147 -28 79 0 97 4 147 28 72 35 141
110 165 180 28 80 24 197 -8 267 -34 74 -76 120 -141 155 -46 26 -65 30 -148
32 -64 2 -107 -2 -132 -12z m219 -71 c52 -19 114 -85 138 -147 26 -68 17 -179
-19 -241 -124 -212 -448 -138 -473 109 -22 210 155 350 354 279z"/>
<path d="M38988 4165 c-94 -35 -167 -113 -199 -210 -7 -22 -13 -74 -12 -116 1
-131 69 -241 181 -296 103 -51 279 -34 354 34 12 11 18 31 18 60 l0 45 -40
-35 c-71 -61 -183 -83 -269 -52 -66 23 -108 62 -142 131 -29 58 -31 70 -27
136 7 113 63 196 157 235 80 34 209 12 284 -48 l37 -30 0 40 c0 45 -13 62 -74
93 -53 28 -210 36 -268 13z"/>
<path d="M40111 4169 c-40 -16 -82 -50 -112 -92 l-29 -40 0 66 0 67 -40 0 -40
0 0 -475 0 -475 40 0 40 0 0 223 c0 221 0 222 19 191 93 -152 318 -164 446
-22 60 66 80 130 80 245 -1 85 -4 97 -35 160 -38 74 -102 132 -170 152 -45 13
-165 14 -199 0z m177 -71 c89 -27 152 -128 152 -243 0 -98 -14 -140 -67 -196
-92 -98 -218 -106 -317 -19 -63 55 -81 101 -81 205 0 104 16 146 78 207 64 61
138 76 235 46z"/>
<path d="M40810 4166 c-52 -20 -110 -56 -110 -70 0 -7 6 -21 14 -32 14 -18 16
-18 43 -1 76 49 165 68 225 48 19 -6 48 -25 64 -42 26 -27 29 -38 33 -110 1
-43 1 -79 -2 -79 -2 0 -26 10 -52 21 -40 18 -62 21 -139 17 -76 -3 -99 -8
-141 -31 -63 -35 -97 -83 -103 -147 -7 -74 5 -117 45 -161 87 -96 270 -89 361
16 l32 36 0 -51 0 -50 35 0 35 0 0 255 c0 231 -2 259 -19 293 -23 46 -46 67
-94 87 -45 18 -177 19 -227 1z m228 -327 c41 -17 42 -19 42 -66 -1 -109 -71
-183 -180 -191 -104 -8 -176 37 -187 115 -18 135 161 213 325 142z"/>
<path d="M42287 4166 c-141 -51 -229 -194 -214 -351 4 -36 15 -85 26 -110 28
-62 94 -130 160 -162 49 -24 68 -28 147 -28 81 0 97 3 150 30 58 30 59 31 62
77 l3 47 -51 -34 c-146 -98 -316 -62 -392 84 -52 99 -34 237 40 315 51 53 111
79 187 79 70 0 143 -28 188 -70 l27 -27 0 46 c0 40 -4 50 -29 68 -16 11 -49
27 -72 35 -52 19 -181 19 -232 1z"/>
<path d="M43967 4166 c-54 -20 -111 -60 -141 -99 -111 -146 -93 -359 40 -476
65 -57 117 -75 219 -76 79 0 97 4 147 28 62 30 115 83 150 149 20 37 23 58 23
153 0 96 -3 116 -24 159 -31 63 -84 116 -147 147 -60 30 -205 38 -267 15z
m230 -78 c92 -43 150 -150 141 -262 -7 -77 -34 -132 -92 -183 -100 -88 -247
-83 -341 12 -50 50 -75 116 -75 199 1 196 191 317 367 234z"/>
<path d="M45774 4170 c-51 -16 -126 -72 -161 -121 -65 -91 -80 -241 -34 -344
65 -146 239 -226 396 -180 160 46 242 167 233 344 -5 101 -29 160 -90 220 -64
64 -118 86 -223 88 -49 1 -104 -2 -121 -7z m212 -76 c155 -65 202 -297 87
-425 -160 -177 -443 -69 -443 168 0 36 5 83 12 105 13 46 77 122 120 144 64
33 155 36 224 8z"/>
<path d="M46527 4166 c-84 -31 -154 -97 -195 -186 -25 -56 -22 -212 5 -272 30
-66 96 -133 162 -165 49 -24 68 -28 147 -28 81 0 97 3 150 30 58 30 59 31 62
78 l3 48 -41 -30 c-119 -86 -276 -77 -367 21 -64 68 -85 211 -45 300 24 53 84
111 137 134 86 37 219 12 288 -53 l27 -27 0 46 c0 40 -4 50 -29 68 -16 11 -49
27 -72 35 -52 19 -181 19 -232 1z"/>
<path d="M47584 4170 c-49 -15 -125 -71 -161 -118 -94 -124 -79 -335 32 -447
21 -21 63 -49 94 -64 47 -22 70 -26 142 -26 79 0 92 3 155 35 115 59 174 161
174 301 0 129 -68 244 -177 299 -39 20 -65 25 -138 27 -49 1 -104 -2 -121 -7z
m230 -89 c115 -61 165 -218 112 -346 -19 -46 -73 -103 -120 -128 -58 -30 -174
-30 -231 0 -89 47 -138 135 -138 245 0 203 200 324 377 229z"/>
<path d="M49739 4167 c-88 -33 -155 -95 -193 -176 -16 -36 -20 -67 -21 -141 0
-82 4 -103 26 -151 107 -228 437 -254 574 -46 44 67 59 129 53 225 -7 123 -69
217 -178 274 -55 28 -202 37 -261 15z m233 -83 c144 -73 182 -292 71 -415 -57
-63 -105 -84 -193 -84 -114 0 -185 46 -230 148 -24 55 -29 161 -10 212 56 148
219 211 362 139z"/>
<path d="M50455 4167 c-50 -20 -115 -60 -115 -71 0 -6 7 -20 16 -31 14 -19 15
-19 42 -2 87 57 184 72 250 38 55 -28 72 -63 72 -151 0 -38 -2 -70 -3 -70 -2
0 -19 8 -38 18 -26 13 -59 17 -139 17 -94 0 -110 -3 -149 -25 -24 -14 -58 -42
-75 -63 -26 -32 -31 -48 -34 -105 -4 -78 14 -119 70 -164 96 -78 283 -52 349
49 l19 28 0 -52 0 -53 35 0 35 0 0 254 c0 156 -4 266 -11 283 -28 76 -99 113
-214 112 -44 0 -94 -6 -110 -12z m223 -327 c42 -19 42 -19 42 -70 0 -115 -79
-190 -202 -190 -161 0 -222 159 -97 252 53 40 174 43 257 8z"/>
<path d="M51141 4154 c-56 -28 -96 -77 -107 -132 -6 -31 -6 -32 30 -32 31 0
38 4 50 33 30 73 117 111 203 88 51 -14 93 -61 93 -103 0 -45 -54 -94 -113
-103 -43 -7 -47 -10 -47 -35 0 -26 4 -28 62 -40 117 -23 166 -114 101 -191
-36 -42 -79 -59 -153 -59 -89 0 -142 34 -175 113 -14 33 -19 37 -51 37 -36 0
-36 -1 -30 -32 26 -131 182 -215 334 -178 110 26 172 95 172 190 0 68 -27 112
-86 141 l-46 22 34 19 c19 11 42 33 51 48 24 39 22 115 -3 156 -51 82 -212
111 -319 58z"/>
<path d="M52520 4166 c-52 -20 -110 -56 -110 -69 0 -7 7 -21 16 -32 14 -19 15
-19 42 -2 86 56 174 70 246 39 58 -26 76 -64 76 -157 0 -36 -2 -65 -4 -65 -2
0 -25 10 -51 21 -64 28 -209 24 -270 -8 -48 -25 -90 -68 -104 -106 -14 -36
-14 -118 0 -154 17 -46 69 -92 123 -108 103 -31 188 -13 258 55 l48 46 0 -48
0 -48 35 0 36 0 -3 268 -3 269 -29 37 c-42 55 -94 76 -191 75 -44 0 -96 -6
-115 -13z m228 -326 c41 -18 42 -20 42 -67 -1 -126 -87 -201 -221 -191 -69 5
-106 27 -133 82 -24 49 -15 97 27 143 58 63 183 77 285 33z"/>
<path d="M53617 4166 c-84 -31 -154 -97 -195 -186 -25 -56 -22 -212 5 -272 30
-66 96 -133 162 -165 49 -24 68 -28 147 -28 81 0 97 3 150 30 58 30 59 31 62
78 l3 48 -41 -30 c-119 -86 -276 -77 -367 21 -64 68 -85 211 -45 300 24 53 84
111 137 134 86 37 219 12 288 -53 l27 -27 0 46 c0 40 -4 50 -29 68 -16 11 -49
27 -72 35 -52 19 -181 19 -232 1z"/>
<path d="M54888 4165 c-93 -34 -174 -119 -200 -209 -6 -23 -11 -75 -11 -117 1
-131 68 -241 181 -296 50 -24 68 -28 147 -28 70 1 100 5 136 22 140 63 216
214 189 372 -21 123 -91 210 -200 252 -60 23 -185 25 -242 4z m211 -67 c44
-14 107 -71 133 -122 12 -24 23 -68 26 -107 6 -90 -16 -156 -74 -213 -124
-124 -322 -92 -406 67 -30 56 -32 194 -4 247 65 124 185 171 325 128z"/>
<path d="M60513 4150 c-31 -18 -64 -48 -80 -72 l-28 -42 -3 67 -3 67 -39 0
-40 0 0 -475 0 -475 40 0 40 0 0 221 0 221 33 -44 c62 -81 139 -115 240 -104
106 11 205 83 248 181 47 106 31 273 -34 364 -62 85 -136 121 -253 121 -58 0
-77 -5 -121 -30z m206 -52 c89 -27 154 -134 154 -253 0 -85 -23 -144 -78 -197
-94 -90 -224 -90 -315 1 -110 110 -108 295 6 405 61 60 136 74 233 44z"/>
<path d="M36570 3850 l0 -320 35 0 35 0 0 285 0 285 170 0 170 0 0 -285 0
-285 40 0 40 0 0 320 0 320 -245 0 -245 0 0 -320z"/>
<path d="M39400 4135 l0 -35 80 0 80 0 0 -285 0 -285 35 0 35 0 0 285 0 285
75 0 75 0 0 35 0 35 -190 0 -190 0 0 -35z"/>
<path d="M41380 3850 l0 -320 35 0 35 0 0 150 0 150 200 0 200 0 0 -150 0
-150 35 0 35 0 0 320 0 320 -35 0 -34 0 -3 -132 -3 -133 -197 -3 -198 -2 0
135 0 135 -35 0 -35 0 0 -320z"/>
<path d="M42700 4135 l0 -35 75 0 75 0 0 -285 0 -285 40 0 40 0 0 285 0 285
75 0 75 0 0 35 0 35 -190 0 -190 0 0 -35z"/>
<path d="M43190 3850 l0 -320 170 0 c150 0 175 2 209 20 55 28 84 79 85 149 1
73 -20 106 -87 136 -44 19 -48 23 -30 29 94 30 122 161 51 241 -44 50 -103 65
-265 65 l-133 0 0 -320z m264 251 c21 -5 51 -22 67 -37 23 -22 29 -36 29 -71
0 -81 -66 -116 -208 -111 l-77 3 -3 99 c-1 55 0 106 2 113 6 15 128 18 190 4z
m40 -292 c78 -22 109 -92 70 -158 -28 -48 -50 -55 -181 -59 l-123 -4 0 109 c0
60 3 113 7 116 10 11 184 8 227 -4z"/>
<path d="M44990 3850 l0 -320 168 0 c154 0 171 2 212 23 56 28 80 73 80 147 0
74 -24 112 -84 135 l-47 18 36 21 c62 38 83 90 66 167 -12 54 -63 102 -126
118 -24 6 -103 11 -174 11 l-131 0 0 -320z m266 249 c58 -15 94 -57 94 -109 0
-31 -6 -44 -35 -68 -39 -35 -86 -45 -185 -40 l-65 3 -3 99 c-1 55 0 106 2 113
7 17 128 18 192 2z m35 -289 c82 -23 115 -104 67 -165 -34 -43 -75 -55 -193
-55 l-105 0 0 108 c0 60 3 112 7 115 10 11 184 8 224 -3z"/>
<path d="M46940 4135 l0 -35 75 0 75 0 0 -285 0 -285 40 0 40 0 0 285 0 285
75 0 75 0 0 35 0 35 -190 0 -190 0 0 -35z"/>
<path d="M48142 4023 c3 -133 6 -153 28 -198 39 -78 82 -97 237 -103 l123 -5
0 -93 0 -94 40 0 40 0 0 320 0 320 -40 0 -40 0 0 -190 0 -190 -87 0 c-197 0
-233 45 -233 288 l0 92 -36 0 -36 0 4 -147z"/>
<path d="M48820 3850 l0 -320 35 0 35 0 0 150 0 150 200 0 200 0 0 -150 0
-150 35 0 35 0 0 320 0 320 -35 0 -34 0 -3 -132 -3 -133 -197 -3 -198 -2 0
135 0 135 -35 0 -35 0 0 -320z"/>
<path d="M52990 4135 l0 -35 75 0 75 0 0 -285 0 -285 35 0 35 0 0 285 0 285
80 0 80 0 0 35 0 35 -190 0 -190 0 0 -35z"/>
<path d="M54130 3850 l0 -320 35 0 35 0 2 167 3 167 144 -164 c80 -91 146
-166 147 -168 1 -2 23 -2 48 0 l47 3 -161 184 c-132 150 -159 186 -148 196 7
7 74 66 148 130 74 65 137 119 139 121 2 2 -18 4 -45 4 -49 0 -51 -2 -181
-115 -72 -63 -134 -115 -137 -115 -3 0 -6 52 -6 115 l0 115 -35 0 -35 0 0
-320z"/>
<path d="M56640 3850 l0 -320 35 0 35 0 2 167 3 167 145 -166 145 -167 49 -1
49 0 -20 23 c-107 120 -303 347 -303 350 0 3 65 62 145 131 80 70 145 129 145
132 0 2 -20 4 -44 4 -41 0 -50 -6 -174 -115 -72 -63 -134 -115 -137 -115 -3 0
-5 52 -5 115 l0 115 -35 0 -35 0 0 -320z"/>
<path d="M57180 4164 c0 -4 56 -131 125 -284 69 -153 125 -283 125 -289 0 -10
-128 -309 -152 -353 -8 -16 -3 -18 34 -18 l43 0 203 460 c112 254 206 468 209
476 5 12 -2 15 -37 12 l-42 -3 -100 -240 c-55 -132 -103 -243 -106 -247 -4 -4
-54 105 -112 243 l-105 249 -42 0 c-24 0 -43 -3 -43 -6z"/>
<path d="M57900 3930 c0 -274 -5 -298 -64 -327 -29 -13 -36 -22 -36 -45 0 -25
4 -28 33 -28 49 0 95 34 120 88 19 43 22 68 25 265 l4 217 184 0 184 0 0 -285
0 -285 35 0 35 0 0 320 0 320 -260 0 -260 0 0 -240z"/>
<path d="M58640 3850 l0 -320 153 0 c139 0 156 2 203 24 73 34 99 79 99 171 0
94 -21 130 -99 169 -52 27 -71 30 -172 34 l-114 5 0 118 0 119 -35 0 -35 0 0
-320z m309 -8 c50 -25 74 -63 74 -116 0 -49 -20 -87 -60 -113 -21 -14 -53 -19
-140 -22 l-113 -3 0 136 0 136 103 0 c77 0 110 -4 136 -18z"/>
<path d="M59180 4135 l0 -35 75 0 75 0 0 -285 0 -285 35 0 35 0 0 285 0 285
75 0 75 0 0 35 0 35 -185 0 -185 0 0 -35z"/>
<path d="M59613 4158 c3 -7 62 -138 131 -291 l125 -277 -74 -166 c-99 -222
-96 -206 -45 -202 40 3 43 5 65 58 13 30 107 243 208 473 l185 417 -42 0 -42
0 -104 -250 c-57 -137 -107 -246 -111 -242 -3 4 -52 116 -109 250 l-103 242
-44 0 c-32 0 -44 -4 -40 -12z"/>
<path d="M61130 3849 l0 -320 163 3 c187 3 221 14 265 81 23 34 27 51 27 111
0 95 -21 131 -99 170 -52 27 -71 30 -172 34 l-114 5 0 118 0 119 -35 0 -35 0
0 -321z m309 -7 c50 -25 74 -63 74 -116 0 -49 -20 -87 -60 -113 -21 -14 -53
-19 -140 -22 l-113 -3 0 136 0 136 103 0 c77 0 110 -4 136 -18z"/>
<path d="M61690 3850 l0 -320 40 0 40 0 0 320 0 320 -40 0 -40 0 0 -320z"/>
</g>
</svg>
