<?xml version="1.0" encoding="utf-8"?>
<!-- Generator: Adobe Illustrator 24.3.0, SVG Export Plug-In . SVG Version: 6.00 Build 0)  -->
<svg version="1.1" id="Слой_1" xmlns="http://www.w3.org/2000/svg" xmlns:xlink="http://www.w3.org/1999/xlink" x="0px" y="0px"
	 viewBox="0 0 175.3 188.6" style="enable-background:new 0 0 175.3 188.6;" xml:space="preserve">
<g>
	<path d="M240,200.7v-34.1h-21.3v34.1h-5.8v-40h33v40H240z"/>
	<path d="M298,180.7c0,3-0.6,5.7-1.7,8.3s-2.7,4.7-4.7,6.6c-2,1.9-4.3,3.3-6.9,4.4c-2.6,1.1-5.4,1.6-8.3,1.6c-3,0-5.9-0.6-8.5-1.7
		c-2.6-1.1-4.9-2.6-6.8-4.6c-1.9-1.9-3.5-4.2-4.6-6.8c-1.1-2.6-1.7-5.4-1.7-8.4c0-2.9,0.6-5.7,1.7-8.2c1.2-2.5,2.7-4.7,4.7-6.5
		c2-1.8,4.3-3.3,6.9-4.3c2.6-1,5.3-1.6,8.2-1.6c3,0,5.8,0.5,8.4,1.6c2.6,1.1,4.9,2.6,6.8,4.5c2,1.9,3.5,4.2,4.6,6.7
		C297.4,174.9,298,177.7,298,180.7z M292.2,180.4c0-2.2-0.4-4.2-1.3-6c-0.8-1.8-2-3.4-3.4-4.8c-1.4-1.3-3.1-2.4-5-3.1
		c-1.9-0.7-3.9-1.1-6.1-1.1c-2.2,0-4.3,0.4-6.2,1.1c-1.9,0.8-3.6,1.8-5,3.2c-1.4,1.4-2.5,3-3.3,4.9c-0.8,1.9-1.2,3.9-1.2,6.2
		c0,2.1,0.4,4.1,1.3,6c0.9,1.8,2,3.4,3.5,4.7c1.5,1.3,3.1,2.4,5,3.1c1.9,0.8,3.9,1.1,6,1.1c2.1,0,4.2-0.4,6.1-1.2
		c1.9-0.8,3.6-1.9,5-3.2s2.5-3,3.4-4.8C291.7,184.6,292.2,182.5,292.2,180.4z"/>
	<path d="M336.4,206.8v-6.1h-31v6.1h-5.8v-12h5.9c3.1-3.9,5.6-8.1,7.5-12.7c1.9-4.6,3.3-9.8,4.2-15.5h-4.4l-2.5-5.9h28.5v34.1h3.5
		v12H336.4z M333,194.8v-28.2H323c-0.3,2.2-0.7,4.5-1.3,7c-0.6,2.5-1.4,5-2.3,7.5c-0.9,2.5-1.9,4.9-3.1,7.3
		c-1.2,2.4-2.4,4.5-3.7,6.4H333z"/>
	<path d="M395.9,170.2c-1.5-1.5-3.3-2.7-5.3-3.5c-2-0.9-4.1-1.3-6.4-1.3c-2.2,0-4.3,0.4-6.2,1.1c-1.9,0.8-3.6,1.8-5,3.2
		c-1.4,1.4-2.5,3-3.3,4.9c-0.8,1.9-1.2,3.9-1.2,6.2c0,2.1,0.4,4.1,1.3,6c0.9,1.8,2,3.4,3.5,4.7c1.5,1.3,3.1,2.4,5,3.1
		c1.9,0.8,3.9,1.1,6,1.1c2.6,0,5-0.6,7.2-1.7c2.2-1.1,4-2.6,5.5-4.5l3.6,4.9c-2,2.3-4.5,4-7.3,5.3c-2.8,1.3-5.8,1.9-9.1,1.9
		c-3,0-5.9-0.6-8.5-1.7c-2.6-1.1-4.9-2.6-6.8-4.6c-1.9-1.9-3.4-4.2-4.6-6.8c-1.1-2.6-1.7-5.4-1.7-8.4c0-2.9,0.6-5.7,1.7-8.2
		c1.2-2.5,2.7-4.7,4.7-6.5c2-1.8,4.3-3.3,6.9-4.3s5.3-1.6,8.2-1.6c3,0,5.9,0.6,8.5,1.7c2.6,1.1,4.9,2.7,6.9,4.6L395.9,170.2z"/>
	<path d="M415,194.8h24.7v5.9h-30.5v-40h28.1v5.9H415v12.2c1.2-0.7,2.4-1.1,3.7-1.3c1.2-0.2,2.5-0.2,3.9-0.2h8.7v5.9h-8.7
		c-1.3,0-2.6,0.1-3.8,0.3c-1.3,0.2-2.5,0.6-3.7,1.3V194.8z"/>
	<path d="M454.9,200.7H449v-40h5.8l-0.1,16.4c0.8-0.4,1.7-0.7,2.5-0.8c0.9-0.2,1.7-0.2,2.6-0.2c0.6,0,1.4,0.1,2.5,0.2
		c1.1,0.1,2.3,0.3,3.5,0.4c1.3,0.1,2.5,0.3,3.8,0.4c1.2,0.1,2.3,0.2,3.2,0.2c0.8,0,1.7-0.1,2.7-0.2c1-0.1,1.9-0.4,2.7-0.8v-15.5h5.8
		v40h-5.8v-18.6c-0.9,0.4-1.8,0.7-2.7,0.8c-1,0.1-1.9,0.2-2.7,0.2c-0.9,0-2-0.1-3.2-0.2c-1.2-0.1-2.5-0.3-3.8-0.4
		c-1.3-0.1-2.4-0.3-3.5-0.4c-1.1-0.1-1.9-0.2-2.5-0.2c-0.9,0-1.7,0.1-2.6,0.2c-0.9,0.2-1.7,0.4-2.5,0.8V200.7z"/>
	<path d="M496,200.7v-40h5.8v15c1.2,0.6,2.5,1.1,3.7,1.3c1.3,0.2,2.6,0.3,3.9,0.3h6.8c4.3,0,7.7,1,10.2,2.9c2.5,1.9,3.7,4.9,3.7,8.9
		c0,2.4-0.4,4.3-1.3,5.9c-0.9,1.5-2,2.7-3.3,3.6c-1.4,0.9-2.9,1.4-4.5,1.8c-1.7,0.3-3.3,0.5-4.9,0.5H496z M509.4,183.1
		c-1.3,0-2.6-0.1-3.9-0.3c-1.3-0.2-2.5-0.6-3.7-1.3v13.2h15c0.8,0,1.6-0.1,2.5-0.3c0.9-0.2,1.7-0.5,2.4-0.9c0.7-0.4,1.3-1,1.8-1.8
		c0.5-0.7,0.7-1.7,0.7-2.8c0-1.2-0.2-2.1-0.7-2.9c-0.5-0.7-1.1-1.3-1.8-1.8s-1.6-0.7-2.5-0.9c-0.9-0.2-1.9-0.3-2.9-0.3H509.4z"/>
	<path d="M591,180.4c0,3-0.5,5.9-1.6,8.4c-1.1,2.6-2.5,4.8-4.4,6.7c-1.9,1.9-4.1,3.4-6.6,4.4s-5.2,1.6-8.1,1.6
		c-2.7,0-5.2-0.5-7.6-1.4s-4.5-2.3-6.3-3.9c-1.8-1.7-3.3-3.7-4.5-6c-1.2-2.3-1.9-4.8-2.2-7.5h-5.4v17.9h-5.8v-40h5.8v16.2h5.5
		c0.4-2.6,1.2-4.9,2.4-7.1c1.2-2.1,2.8-4,4.6-5.5c1.8-1.5,3.9-2.7,6.2-3.5c2.3-0.8,4.7-1.3,7.2-1.3c2.8,0,5.5,0.5,8,1.6
		c2.5,1.1,4.7,2.5,6.6,4.4c1.9,1.9,3.4,4.1,4.4,6.6C590.5,174.6,591,177.4,591,180.4z M585.4,180.4c0-2.2-0.4-4.2-1.2-6
		c-0.8-1.8-1.9-3.4-3.3-4.8c-1.4-1.3-3-2.4-4.9-3.1c-1.8-0.7-3.8-1.1-5.8-1.1c-2.1,0-4.1,0.4-6,1.1c-1.8,0.7-3.4,1.7-4.8,3
		c-1.4,1.3-2.4,2.9-3.2,4.7c-0.8,1.8-1.2,3.9-1.2,6.1c0,2.1,0.4,4.1,1.3,6c0.8,1.9,2,3.5,3.4,4.9s3,2.5,4.9,3.2
		c1.8,0.8,3.8,1.2,5.8,1.2c2.1,0,4.1-0.4,6-1.2c1.8-0.8,3.4-1.9,4.8-3.2c1.4-1.4,2.4-3,3.2-4.8C585.1,184.6,585.4,182.5,585.4,180.4
		z"/>
	<g>
		<path d="M242.1,218.8h5.8v40h-5.8V228l-23.5,30.8h-5.8v-40h5.8v30.8L242.1,218.8z"/>
		<path d="M293.7,247.9c0,2-0.4,3.7-1.2,5.1c-0.8,1.4-1.9,2.5-3.2,3.4c-1.3,0.9-2.8,1.5-4.4,1.9c-1.6,0.4-3.3,0.6-4.9,0.6h-20.3v-40
			h20.3c1.7,0,3.2,0.2,4.7,0.7c1.4,0.5,2.7,1.2,3.8,2.1c1.1,0.9,1.9,2.1,2.5,3.4c0.6,1.4,0.9,2.9,0.9,4.7c0,1.7-0.3,3.3-0.9,4.7
			c-0.6,1.4-1.5,2.5-2.7,3.2c0.7,0.3,1.4,0.8,2.1,1.4s1.3,1.3,1.8,2.2c0.5,0.9,0.9,1.8,1.2,2.9C293.6,245.2,293.7,246.5,293.7,247.9
			z M265.5,236.9c1.2-0.7,2.4-1.2,3.7-1.3c1.3-0.2,2.6-0.3,3.9-0.3h6.8c1.8,0,3.3-0.5,4.3-1.4c1.1-0.9,1.6-2.3,1.6-4.2
			c0-1.9-0.6-3.2-1.7-4c-1.1-0.8-2.5-1.1-4.3-1.1h-14.4V236.9z M265.5,252.9h15c0.8,0,1.6-0.1,2.5-0.3c0.9-0.2,1.7-0.6,2.4-1.1
			c0.7-0.5,1.3-1.1,1.8-1.8c0.5-0.7,0.7-1.6,0.7-2.6c0-1.2-0.2-2.1-0.7-2.9c-0.5-0.7-1.1-1.3-1.8-1.8c-0.7-0.4-1.6-0.7-2.5-0.9
			c-0.9-0.2-1.9-0.3-2.9-0.3h-6.8c-1.3,0-2.6,0.1-3.8,0.3c-1.3,0.2-2.5,0.6-3.7,1.3V252.9z"/>
		<path d="M309.2,233.7c1.2,0.6,2.5,1.1,3.7,1.3c1.3,0.2,2.6,0.3,3.9,0.3h5.2c4.3,0,7.7,1,10.2,2.9c2.5,1.9,3.7,4.9,3.7,8.9
			c0,2.4-0.4,4.3-1.3,5.9c-0.9,1.5-2,2.7-3.3,3.6c-1.4,0.9-2.9,1.4-4.5,1.8c-1.7,0.3-3.3,0.5-4.9,0.5h-18.7v-40h5.8V233.7z
			 M322.6,252.9c0.8,0,1.6-0.1,2.5-0.3c0.9-0.2,1.7-0.5,2.4-0.9c0.7-0.4,1.3-1,1.8-1.8c0.5-0.7,0.7-1.7,0.7-2.8
			c0-1.2-0.2-2.1-0.7-2.9c-0.5-0.7-1.1-1.3-1.8-1.8c-0.8-0.4-1.6-0.7-2.5-0.9c-0.9-0.2-1.9-0.3-2.9-0.3h-5.2c-1.3,0-2.6-0.1-3.9-0.3
			c-1.3-0.2-2.5-0.6-3.7-1.3v13.2H322.6z M341.1,258.8v-40h5.7v40H341.1z"/>
	</g>
</g>
<g>
	<g>
		<path d="M366.9,111.3h-0.7v-5.2h-3.1v5.2h-0.7v-5.9h4.4V111.3z"/>
		<path d="M368.8,114.1v-8.7h0.7v8.7H368.8z M374.1,110c-0.3,0.5-0.6,0.8-1,1.1c-0.4,0.2-0.9,0.4-1.4,0.4c-0.5,0-0.9-0.1-1.3-0.4
			c-0.4-0.3-0.7-0.6-0.9-1.1c-0.2-0.5-0.3-1-0.3-1.6c0-0.6,0.1-1.1,0.3-1.6c0.2-0.5,0.5-0.8,0.9-1.1c0.4-0.3,0.8-0.4,1.3-0.4
			c0.5,0,1,0.1,1.4,0.4c0.4,0.2,0.8,0.6,1,1.1c0.3,0.5,0.4,1,0.4,1.6C374.5,109,374.3,109.6,374.1,110z M373.5,107.1
			c-0.2-0.4-0.5-0.6-0.8-0.8c-0.3-0.2-0.7-0.3-1.1-0.3c-0.4,0-0.7,0.1-1,0.3c-0.3,0.2-0.6,0.5-0.8,0.9c-0.2,0.4-0.3,0.8-0.3,1.2
			c0,0.5,0.1,0.9,0.3,1.2c0.2,0.4,0.5,0.7,0.8,0.9c0.3,0.2,0.7,0.3,1,0.3c0.4,0,0.8-0.1,1.1-0.3c0.3-0.2,0.6-0.5,0.8-0.8
			c0.2-0.4,0.3-0.8,0.3-1.3C373.8,107.9,373.7,107.5,373.5,107.1z"/>
		<path d="M376,106.8c0.3-0.5,0.6-0.8,1.1-1.1c0.5-0.3,1-0.4,1.5-0.4s1.1,0.1,1.5,0.4c0.5,0.3,0.8,0.6,1.1,1.1
			c0.3,0.5,0.4,1,0.4,1.6c0,0.6-0.1,1.1-0.4,1.6c-0.3,0.5-0.6,0.8-1.1,1.1c-0.5,0.3-1,0.4-1.5,0.4s-1.1-0.1-1.5-0.4
			c-0.5-0.3-0.8-0.6-1.1-1.1c-0.3-0.5-0.4-1-0.4-1.6C375.6,107.8,375.7,107.3,376,106.8z M376.6,109.7c0.2,0.4,0.5,0.7,0.8,0.9
			c0.4,0.2,0.7,0.3,1.2,0.3c0.4,0,0.8-0.1,1.2-0.3c0.4-0.2,0.6-0.5,0.8-0.9c0.2-0.4,0.3-0.8,0.3-1.3c0-0.5-0.1-0.9-0.3-1.3
			c-0.2-0.4-0.5-0.7-0.8-0.9c-0.4-0.2-0.8-0.3-1.2-0.3c-0.4,0-0.8,0.1-1.2,0.3c-0.4,0.2-0.6,0.5-0.8,0.9c-0.2,0.4-0.3,0.8-0.3,1.3
			C376.3,108.9,376.4,109.3,376.6,109.7z"/>
		<path d="M383.5,109.7c0.2,0.4,0.5,0.7,0.8,0.9c0.4,0.2,0.7,0.3,1.2,0.3c0.3,0,0.6,0,0.9-0.1c0.3-0.1,0.5-0.2,0.7-0.4
			c0.2-0.2,0.3-0.3,0.4-0.5v0.8c-0.2,0.2-0.5,0.4-0.8,0.5c-0.4,0.1-0.8,0.2-1.2,0.2c-0.6,0-1.1-0.1-1.5-0.4
			c-0.5-0.3-0.8-0.6-1.1-1.1c-0.3-0.5-0.4-1-0.4-1.6c0-0.6,0.1-1.1,0.4-1.6c0.3-0.5,0.6-0.8,1.1-1.1c0.5-0.3,1-0.4,1.5-0.4
			c0.4,0,0.8,0.1,1.2,0.2c0.4,0.2,0.6,0.3,0.8,0.5v0.8c-0.1-0.2-0.2-0.3-0.4-0.5c-0.2-0.1-0.4-0.3-0.7-0.4c-0.3-0.1-0.6-0.1-0.9-0.1
			c-0.4,0-0.8,0.1-1.2,0.3c-0.4,0.2-0.6,0.5-0.8,0.9c-0.2,0.4-0.3,0.8-0.3,1.3C383.2,108.9,383.3,109.3,383.5,109.7z"/>
		<path d="M391.6,105.5v0.6h-3.4v-0.6H391.6z M390.2,105.7v5.7h-0.7v-5.7H390.2z"/>
		<path d="M392.6,114.1v-8.7h0.7v8.7H392.6z M397.9,110c-0.3,0.5-0.6,0.8-1,1.1c-0.4,0.2-0.9,0.4-1.4,0.4c-0.5,0-0.9-0.1-1.3-0.4
			c-0.4-0.3-0.7-0.6-0.9-1.1c-0.2-0.5-0.3-1-0.3-1.6c0-0.6,0.1-1.1,0.3-1.6c0.2-0.5,0.5-0.8,0.9-1.1c0.4-0.3,0.8-0.4,1.3-0.4
			c0.5,0,1,0.1,1.4,0.4c0.4,0.2,0.8,0.6,1,1.1c0.3,0.5,0.4,1,0.4,1.6C398.3,109,398.2,109.6,397.9,110z M397.3,107.1
			c-0.2-0.4-0.5-0.6-0.8-0.8c-0.3-0.2-0.7-0.3-1.1-0.3c-0.4,0-0.7,0.1-1,0.3c-0.3,0.2-0.6,0.5-0.8,0.9c-0.2,0.4-0.3,0.8-0.3,1.2
			c0,0.5,0.1,0.9,0.3,1.2c0.2,0.4,0.5,0.7,0.8,0.9c0.3,0.2,0.7,0.3,1,0.3c0.4,0,0.8-0.1,1.1-0.3c0.3-0.2,0.6-0.5,0.8-0.8
			c0.2-0.4,0.3-0.8,0.3-1.3C397.6,107.9,397.5,107.5,397.3,107.1z"/>
		<path d="M400.3,110.3c0.1,0.2,0.3,0.3,0.5,0.4c0.2,0.1,0.5,0.1,0.7,0.1c0.4,0,0.7-0.1,1-0.2c0.3-0.1,0.5-0.3,0.7-0.6
			c0.2-0.3,0.2-0.6,0.2-0.9l0.2,0.4c0,0.4-0.1,0.7-0.3,1c-0.2,0.3-0.5,0.5-0.8,0.7c-0.3,0.2-0.7,0.2-1.1,0.2c-0.3,0-0.7-0.1-1-0.2
			c-0.3-0.1-0.5-0.3-0.7-0.6c-0.2-0.3-0.3-0.6-0.3-1c0-0.4,0.1-0.8,0.3-1c0.2-0.3,0.5-0.5,0.9-0.7c0.4-0.1,0.8-0.2,1.2-0.2
			c0.4,0,0.7,0,0.9,0.1c0.3,0.1,0.5,0.2,0.6,0.3c0.2,0.1,0.3,0.2,0.3,0.3v0.4c-0.2-0.2-0.5-0.3-0.8-0.4c-0.3-0.1-0.6-0.2-1-0.2
			c-0.3,0-0.6,0.1-0.9,0.2c-0.3,0.1-0.5,0.3-0.6,0.5c-0.2,0.2-0.2,0.5-0.2,0.8C400,109.9,400.1,110.2,400.3,110.3z M399.9,106.1
			c0.2-0.2,0.5-0.4,0.9-0.5c0.4-0.2,0.8-0.3,1.3-0.3c0.4,0,0.8,0.1,1.1,0.2c0.3,0.2,0.5,0.4,0.7,0.6c0.2,0.3,0.2,0.6,0.2,1v4.1h-0.7
			v-4.1c0-0.4-0.1-0.7-0.4-0.9c-0.3-0.2-0.6-0.3-1-0.3c-0.3,0-0.5,0-0.8,0.1c-0.2,0.1-0.4,0.2-0.6,0.3s-0.3,0.2-0.4,0.3L399.9,106.1
			z"/>
		<path d="M406.7,105.5v5.9h-0.7v-5.9H406.7z M406.5,107.9h4.3v0.6h-4.3V107.9z M411,105.5v5.9h-0.7v-5.9H411z"/>
		<path d="M413.4,109.7c0.2,0.4,0.5,0.7,0.8,0.9c0.4,0.2,0.7,0.3,1.2,0.3c0.3,0,0.6,0,0.9-0.1c0.3-0.1,0.5-0.2,0.7-0.4
			c0.2-0.2,0.3-0.3,0.4-0.5v0.8c-0.2,0.2-0.5,0.4-0.8,0.5c-0.4,0.1-0.8,0.2-1.2,0.2c-0.6,0-1.1-0.1-1.5-0.4
			c-0.5-0.3-0.8-0.6-1.1-1.1c-0.3-0.5-0.4-1-0.4-1.6c0-0.6,0.1-1.1,0.4-1.6c0.3-0.5,0.6-0.8,1.1-1.1c0.5-0.3,1-0.4,1.5-0.4
			c0.4,0,0.8,0.1,1.2,0.2c0.4,0.2,0.6,0.3,0.8,0.5v0.8c-0.1-0.2-0.2-0.3-0.4-0.5c-0.2-0.1-0.4-0.3-0.7-0.4c-0.3-0.1-0.6-0.1-0.9-0.1
			c-0.4,0-0.8,0.1-1.2,0.3c-0.4,0.2-0.6,0.5-0.8,0.9c-0.2,0.4-0.3,0.8-0.3,1.3C413.1,108.9,413.2,109.3,413.4,109.7z"/>
		<path d="M421.5,105.5v0.6h-3.4v-0.6H421.5z M420.1,105.7v5.7h-0.7v-5.7H420.1z"/>
		<path d="M423.2,105.5v5.9h-0.7v-5.9H423.2z M422.9,108.1h1.6c0.2,0,0.3,0,0.5-0.1c0.2,0,0.3-0.1,0.4-0.2c0.1-0.1,0.2-0.2,0.3-0.3
			c0.1-0.1,0.1-0.3,0.1-0.5c0-0.3-0.1-0.6-0.4-0.8c-0.3-0.2-0.6-0.3-1-0.3h-1.6v-0.6h1.6c0.4,0,0.7,0.1,1,0.2
			c0.3,0.1,0.5,0.3,0.7,0.5c0.2,0.2,0.3,0.5,0.3,0.9c0,0.3-0.1,0.6-0.3,0.8c-0.2,0.2-0.4,0.4-0.7,0.5c-0.3,0.1-0.6,0.1-1,0.1h-1.6
			V108.1z M424.6,108.3c0.4,0,0.8,0,1.1,0.1c0.3,0.1,0.6,0.2,0.8,0.4c0.2,0.2,0.3,0.5,0.3,0.9c0,0.4-0.1,0.8-0.4,1.1
			c-0.3,0.3-0.8,0.5-1.4,0.5h-1.9v-0.6h1.8c0.5,0,0.8-0.1,1-0.3c0.2-0.2,0.3-0.5,0.3-0.8c0-0.2,0-0.4-0.1-0.5
			c-0.1-0.1-0.2-0.2-0.3-0.3c-0.1-0.1-0.3-0.1-0.5-0.2c-0.2,0-0.4-0.1-0.6-0.1h-1.7v-0.3H424.6z"/>
		<path d="M428,106.8c0.3-0.5,0.6-0.8,1.1-1.1c0.5-0.3,1-0.4,1.5-0.4s1.1,0.1,1.5,0.4c0.5,0.3,0.8,0.6,1.1,1.1
			c0.3,0.5,0.4,1,0.4,1.6c0,0.6-0.1,1.1-0.4,1.6c-0.3,0.5-0.6,0.8-1.1,1.1c-0.5,0.3-1,0.4-1.5,0.4s-1.1-0.1-1.5-0.4
			c-0.5-0.3-0.8-0.6-1.1-1.1c-0.3-0.5-0.4-1-0.4-1.6C427.6,107.8,427.8,107.3,428,106.8z M428.6,109.7c0.2,0.4,0.5,0.7,0.8,0.9
			s0.7,0.3,1.2,0.3c0.4,0,0.8-0.1,1.2-0.3c0.4-0.2,0.6-0.5,0.8-0.9c0.2-0.4,0.3-0.8,0.3-1.3c0-0.5-0.1-0.9-0.3-1.3
			c-0.2-0.4-0.5-0.7-0.8-0.9c-0.4-0.2-0.8-0.3-1.2-0.3c-0.4,0-0.8,0.1-1.2,0.3c-0.4,0.2-0.6,0.5-0.8,0.9c-0.2,0.4-0.3,0.8-0.3,1.3
			C428.3,108.9,428.4,109.3,428.6,109.7z"/>
		<path d="M439.5,105.5v5.9h-0.7v-5.9H439.5z M439.2,108.1h1.6c0.2,0,0.3,0,0.5-0.1c0.2,0,0.3-0.1,0.4-0.2c0.1-0.1,0.2-0.2,0.3-0.3
			c0.1-0.1,0.1-0.3,0.1-0.5c0-0.3-0.1-0.6-0.4-0.8c-0.3-0.2-0.6-0.3-1-0.3h-1.6v-0.6h1.6c0.4,0,0.7,0.1,1,0.2
			c0.3,0.1,0.5,0.3,0.7,0.5c0.2,0.2,0.3,0.5,0.3,0.9c0,0.3-0.1,0.6-0.3,0.8c-0.2,0.2-0.4,0.4-0.7,0.5c-0.3,0.1-0.6,0.1-1,0.1h-1.6
			V108.1z M440.9,108.3c0.4,0,0.8,0,1.1,0.1c0.3,0.1,0.6,0.2,0.8,0.4c0.2,0.2,0.3,0.5,0.3,0.9c0,0.4-0.1,0.8-0.4,1.1
			c-0.3,0.3-0.8,0.5-1.4,0.5h-1.9v-0.6h1.8c0.5,0,0.8-0.1,1-0.3c0.2-0.2,0.3-0.5,0.3-0.8c0-0.2,0-0.4-0.1-0.5
			c-0.1-0.1-0.2-0.2-0.3-0.3c-0.1-0.1-0.3-0.1-0.5-0.2c-0.2,0-0.4-0.1-0.6-0.1h-1.7v-0.3H440.9z"/>
		<path d="M444.3,106.8c0.3-0.5,0.6-0.8,1.1-1.1c0.5-0.3,1-0.4,1.5-0.4s1.1,0.1,1.5,0.4c0.5,0.3,0.8,0.6,1.1,1.1
			c0.3,0.5,0.4,1,0.4,1.6c0,0.6-0.1,1.1-0.4,1.6c-0.3,0.5-0.6,0.8-1.1,1.1c-0.5,0.3-1,0.4-1.5,0.4s-1.1-0.1-1.5-0.4
			c-0.5-0.3-0.8-0.6-1.1-1.1c-0.3-0.5-0.4-1-0.4-1.6C443.9,107.8,444.1,107.3,444.3,106.8z M444.9,109.7c0.2,0.4,0.5,0.7,0.8,0.9
			c0.4,0.2,0.7,0.3,1.2,0.3c0.4,0,0.8-0.1,1.2-0.3c0.4-0.2,0.6-0.5,0.8-0.9c0.2-0.4,0.3-0.8,0.3-1.3c0-0.5-0.1-0.9-0.3-1.3
			c-0.2-0.4-0.5-0.7-0.8-0.9c-0.4-0.2-0.8-0.3-1.2-0.3c-0.4,0-0.8,0.1-1.2,0.3c-0.4,0.2-0.6,0.5-0.8,0.9c-0.2,0.4-0.3,0.8-0.3,1.3
			C444.6,108.9,444.7,109.3,444.9,109.7z"/>
		<path d="M451.8,109.7c0.2,0.4,0.5,0.7,0.8,0.9s0.7,0.3,1.2,0.3c0.3,0,0.6,0,0.9-0.1c0.3-0.1,0.5-0.2,0.7-0.4
			c0.2-0.2,0.3-0.3,0.4-0.5v0.8c-0.2,0.2-0.5,0.4-0.8,0.5c-0.4,0.1-0.8,0.2-1.2,0.2c-0.6,0-1.1-0.1-1.5-0.4
			c-0.5-0.3-0.8-0.6-1.1-1.1c-0.3-0.5-0.4-1-0.4-1.6c0-0.6,0.1-1.1,0.4-1.6c0.3-0.5,0.6-0.8,1.1-1.1c0.5-0.3,1-0.4,1.5-0.4
			c0.4,0,0.8,0.1,1.2,0.2c0.4,0.2,0.6,0.3,0.8,0.5v0.8c-0.1-0.2-0.2-0.3-0.4-0.5c-0.2-0.1-0.4-0.3-0.7-0.4c-0.3-0.1-0.6-0.1-0.9-0.1
			c-0.4,0-0.8,0.1-1.2,0.3c-0.4,0.2-0.6,0.5-0.8,0.9c-0.2,0.4-0.3,0.8-0.3,1.3C451.5,108.9,451.6,109.3,451.8,109.7z"/>
		<path d="M460,105.5v0.6h-3.4v-0.6H460z M458.6,105.7v5.7h-0.7v-5.7H458.6z"/>
		<path d="M460.7,106.8c0.3-0.5,0.6-0.8,1.1-1.1c0.5-0.3,1-0.4,1.5-0.4s1.1,0.1,1.5,0.4c0.5,0.3,0.8,0.6,1.1,1.1
			c0.3,0.5,0.4,1,0.4,1.6c0,0.6-0.1,1.1-0.4,1.6c-0.3,0.5-0.6,0.8-1.1,1.1c-0.5,0.3-1,0.4-1.5,0.4s-1.1-0.1-1.5-0.4
			c-0.5-0.3-0.8-0.6-1.1-1.1c-0.3-0.5-0.4-1-0.4-1.6C460.3,107.8,460.5,107.3,460.7,106.8z M461.3,109.7c0.2,0.4,0.5,0.7,0.8,0.9
			c0.4,0.2,0.7,0.3,1.2,0.3c0.4,0,0.8-0.1,1.2-0.3c0.4-0.2,0.6-0.5,0.8-0.9c0.2-0.4,0.3-0.8,0.3-1.3c0-0.5-0.1-0.9-0.3-1.3
			c-0.2-0.4-0.5-0.7-0.8-0.9c-0.4-0.2-0.8-0.3-1.2-0.3c-0.4,0-0.8,0.1-1.2,0.3c-0.4,0.2-0.6,0.5-0.8,0.9c-0.2,0.4-0.3,0.8-0.3,1.3
			C461,108.9,461.1,109.3,461.3,109.7z"/>
		<path d="M468.1,107.2c0,0.4,0.1,0.8,0.2,1c0.1,0.3,0.3,0.4,0.5,0.6c0.2,0.1,0.6,0.2,1,0.2v0.6c-0.6,0-1-0.1-1.4-0.2
			c-0.3-0.2-0.6-0.4-0.7-0.8c-0.1-0.4-0.2-0.8-0.2-1.4v-1.7h0.7V107.2z M469.7,108.9h1.7v0.6h-1.7V108.9z M471.7,105.5v5.9H471v-5.9
			H471.7z"/>
		<path d="M474.2,105.5v5.9h-0.7v-5.9H474.2z M474,107.9h4.3v0.6H474V107.9z M478.5,105.5v5.9h-0.7v-5.9H478.5z"/>
		<path d="M480.3,106.8c0.3-0.5,0.6-0.8,1.1-1.1c0.5-0.3,1-0.4,1.5-0.4s1.1,0.1,1.5,0.4c0.5,0.3,0.8,0.6,1.1,1.1
			c0.3,0.5,0.4,1,0.4,1.6c0,0.6-0.1,1.1-0.4,1.6c-0.3,0.5-0.6,0.8-1.1,1.1c-0.5,0.3-1,0.4-1.5,0.4s-1.1-0.1-1.5-0.4
			c-0.5-0.3-0.8-0.6-1.1-1.1c-0.3-0.5-0.4-1-0.4-1.6C479.9,107.8,480.1,107.3,480.3,106.8z M480.9,109.7c0.2,0.4,0.5,0.7,0.8,0.9
			c0.4,0.2,0.7,0.3,1.2,0.3c0.4,0,0.8-0.1,1.2-0.3c0.4-0.2,0.6-0.5,0.8-0.9c0.2-0.4,0.3-0.8,0.3-1.3c0-0.5-0.1-0.9-0.3-1.3
			c-0.2-0.4-0.5-0.7-0.8-0.9c-0.4-0.2-0.8-0.3-1.2-0.3c-0.4,0-0.8,0.1-1.2,0.3c-0.4,0.2-0.6,0.5-0.8,0.9c-0.2,0.4-0.3,0.8-0.3,1.3
			C480.6,108.9,480.7,109.3,480.9,109.7z"/>
		<path d="M487.7,110.3c0.1,0.2,0.3,0.3,0.5,0.4c0.2,0.1,0.5,0.1,0.7,0.1c0.4,0,0.7-0.1,1-0.2c0.3-0.1,0.5-0.3,0.7-0.6
			c0.2-0.3,0.2-0.6,0.2-0.9l0.2,0.4c0,0.4-0.1,0.7-0.3,1c-0.2,0.3-0.5,0.5-0.8,0.7c-0.3,0.2-0.7,0.2-1.1,0.2c-0.3,0-0.7-0.1-1-0.2
			c-0.3-0.1-0.5-0.3-0.7-0.6c-0.2-0.3-0.3-0.6-0.3-1c0-0.4,0.1-0.8,0.3-1c0.2-0.3,0.5-0.5,0.9-0.7c0.4-0.1,0.8-0.2,1.2-0.2
			c0.4,0,0.7,0,0.9,0.1c0.3,0.1,0.5,0.2,0.6,0.3c0.2,0.1,0.3,0.2,0.3,0.3v0.4c-0.2-0.2-0.5-0.3-0.8-0.4c-0.3-0.1-0.6-0.2-1-0.2
			c-0.3,0-0.6,0.1-0.9,0.2c-0.3,0.1-0.5,0.3-0.6,0.5c-0.2,0.2-0.2,0.5-0.2,0.8C487.5,109.9,487.6,110.2,487.7,110.3z M487.3,106.1
			c0.2-0.2,0.5-0.4,0.9-0.5c0.4-0.2,0.8-0.3,1.3-0.3c0.4,0,0.8,0.1,1.1,0.2c0.3,0.2,0.5,0.4,0.7,0.6c0.2,0.3,0.2,0.6,0.2,1v4.1h-0.7
			v-4.1c0-0.4-0.1-0.7-0.4-0.9c-0.3-0.2-0.6-0.3-1-0.3c-0.3,0-0.5,0-0.8,0.1c-0.2,0.1-0.4,0.2-0.6,0.3s-0.3,0.2-0.4,0.3L487.3,106.1
			z"/>
		<path d="M494.1,110.9c-0.4-0.4-0.7-0.8-0.7-1.4h0.7c0.1,0.4,0.2,0.7,0.5,1c0.3,0.3,0.7,0.4,1.2,0.4c0.3,0,0.6,0,0.8-0.1
			c0.2-0.1,0.4-0.2,0.6-0.4c0.2-0.2,0.2-0.4,0.2-0.7s-0.1-0.5-0.2-0.7c-0.1-0.2-0.3-0.3-0.6-0.4c-0.3-0.1-0.5-0.1-0.9-0.1v-0.4
			c0.7,0,1.3,0.1,1.7,0.4c0.4,0.3,0.6,0.7,0.6,1.2c0,0.4-0.1,0.7-0.3,1c-0.2,0.3-0.5,0.5-0.8,0.6c-0.3,0.1-0.7,0.2-1.1,0.2
			C495.1,111.5,494.5,111.3,494.1,110.9z M495.7,107.9c0.5,0,0.8-0.1,1.1-0.3c0.2-0.2,0.4-0.4,0.4-0.7c0-0.3-0.1-0.5-0.4-0.7
			c-0.2-0.2-0.6-0.3-0.9-0.3c-0.3,0-0.6,0.1-0.8,0.2c-0.2,0.1-0.4,0.3-0.5,0.5c-0.1,0.2-0.2,0.4-0.2,0.6h-0.7c0-0.3,0.1-0.6,0.3-0.9
			c0.2-0.3,0.4-0.5,0.8-0.6c0.3-0.2,0.7-0.2,1.1-0.2c0.4,0,0.7,0.1,1,0.2c0.3,0.1,0.5,0.3,0.7,0.5s0.3,0.5,0.3,0.8
			c0,0.4-0.2,0.8-0.5,1c-0.4,0.3-0.9,0.4-1.5,0.4V107.9z"/>
		<path d="M499.6,111.8l0.1-1l4.5-5.7l-0.1,1L499.6,111.8z M500.3,110.9l-0.7,0.9v-6.3h0.7V110.9z M504.1,111.3h-0.7V106l0.7-0.9
			V111.3z"/>
		<path d="M506.5,110.3c0.1,0.2,0.3,0.3,0.5,0.4c0.2,0.1,0.5,0.1,0.7,0.1c0.4,0,0.7-0.1,1-0.2c0.3-0.1,0.5-0.3,0.7-0.6
			c0.2-0.3,0.2-0.6,0.2-0.9l0.2,0.4c0,0.4-0.1,0.7-0.3,1c-0.2,0.3-0.5,0.5-0.8,0.7c-0.3,0.2-0.7,0.2-1.1,0.2c-0.3,0-0.7-0.1-1-0.2
			c-0.3-0.1-0.5-0.3-0.7-0.6c-0.2-0.3-0.3-0.6-0.3-1c0-0.4,0.1-0.8,0.3-1c0.2-0.3,0.5-0.5,0.9-0.7c0.4-0.1,0.8-0.2,1.2-0.2
			c0.4,0,0.7,0,0.9,0.1c0.3,0.1,0.5,0.2,0.6,0.3c0.2,0.1,0.3,0.2,0.3,0.3v0.4c-0.2-0.2-0.5-0.3-0.8-0.4c-0.3-0.1-0.6-0.2-1-0.2
			c-0.3,0-0.6,0.1-0.9,0.2c-0.3,0.1-0.5,0.3-0.6,0.5c-0.2,0.2-0.2,0.5-0.2,0.8C506.3,109.9,506.3,110.2,506.5,110.3z M506.1,106.1
			c0.2-0.2,0.5-0.4,0.9-0.5c0.4-0.2,0.8-0.3,1.3-0.3c0.4,0,0.8,0.1,1.1,0.2c0.3,0.2,0.5,0.4,0.7,0.6c0.2,0.3,0.2,0.6,0.2,1v4.1h-0.7
			v-4.1c0-0.4-0.1-0.7-0.4-0.9c-0.3-0.2-0.6-0.3-1-0.3c-0.3,0-0.5,0-0.8,0.1c-0.2,0.1-0.4,0.2-0.6,0.3s-0.3,0.2-0.4,0.3L506.1,106.1
			z"/>
		<path d="M514.8,105.5v0.6h-3.4v-0.6H514.8z M513.4,105.7v5.7h-0.7v-5.7H513.4z"/>
		<path d="M516.1,109.7c0.2,0.4,0.5,0.7,0.8,0.9s0.7,0.3,1.2,0.3c0.3,0,0.6,0,0.9-0.1c0.3-0.1,0.5-0.2,0.7-0.4
			c0.2-0.2,0.3-0.3,0.4-0.5v0.8c-0.2,0.2-0.5,0.4-0.8,0.5c-0.4,0.1-0.8,0.2-1.2,0.2c-0.6,0-1.1-0.1-1.5-0.4
			c-0.5-0.3-0.8-0.6-1.1-1.1c-0.3-0.5-0.4-1-0.4-1.6c0-0.6,0.1-1.1,0.4-1.6c0.3-0.5,0.6-0.8,1.1-1.1c0.5-0.3,1-0.4,1.5-0.4
			c0.4,0,0.8,0.1,1.2,0.2c0.4,0.2,0.6,0.3,0.8,0.5v0.8c-0.1-0.2-0.2-0.3-0.4-0.5c-0.2-0.1-0.4-0.3-0.7-0.4c-0.3-0.1-0.6-0.1-0.9-0.1
			c-0.4,0-0.8,0.1-1.2,0.3c-0.4,0.2-0.6,0.5-0.8,0.9c-0.2,0.4-0.3,0.8-0.3,1.3C515.8,108.9,515.9,109.3,516.1,109.7z"/>
		<path d="M522.4,105.5v5.9h-0.7v-5.9H522.4z M525.7,105.5l-2.8,2.4l3,3.4h-0.8l-3-3.4l2.7-2.4H525.7z"/>
		<path d="M527.1,106.8c0.3-0.5,0.6-0.8,1.1-1.1c0.5-0.3,1-0.4,1.5-0.4s1.1,0.1,1.5,0.4c0.5,0.3,0.8,0.6,1.1,1.1
			c0.3,0.5,0.4,1,0.4,1.6c0,0.6-0.1,1.1-0.4,1.6c-0.3,0.5-0.6,0.8-1.1,1.1c-0.5,0.3-1,0.4-1.5,0.4s-1.1-0.1-1.5-0.4
			c-0.5-0.3-0.8-0.6-1.1-1.1c-0.3-0.5-0.4-1-0.4-1.6C526.7,107.8,526.8,107.3,527.1,106.8z M527.7,109.7c0.2,0.4,0.5,0.7,0.8,0.9
			c0.4,0.2,0.7,0.3,1.2,0.3c0.4,0,0.8-0.1,1.2-0.3c0.4-0.2,0.6-0.5,0.8-0.9c0.2-0.4,0.3-0.8,0.3-1.3c0-0.5-0.1-0.9-0.3-1.3
			c-0.2-0.4-0.5-0.7-0.8-0.9c-0.4-0.2-0.8-0.3-1.2-0.3c-0.4,0-0.8,0.1-1.2,0.3c-0.4,0.2-0.6,0.5-0.8,0.9c-0.2,0.4-0.3,0.8-0.3,1.3
			C527.4,108.9,527.5,109.3,527.7,109.7z"/>
		<path d="M534.2,111.8l0.1-1l4.5-5.7l-0.1,1L534.2,111.8z M534.8,110.9l-0.7,0.9v-6.3h0.7V110.9z M535,102.5c0,0.2,0,0.4,0.1,0.6
			c0.1,0.2,0.2,0.4,0.5,0.5c0.2,0.1,0.5,0.2,0.8,0.2c0.3,0,0.6-0.1,0.8-0.2c0.2-0.1,0.4-0.3,0.5-0.5c0.1-0.2,0.1-0.4,0.1-0.6h0.6
			c0,0.3-0.1,0.6-0.2,0.8c-0.2,0.3-0.4,0.5-0.7,0.7c-0.3,0.2-0.7,0.3-1.1,0.3c-0.4,0-0.8-0.1-1.1-0.3c-0.3-0.2-0.5-0.4-0.7-0.7
			c-0.2-0.3-0.2-0.6-0.2-0.8H535z M538.7,111.3H538V106l0.7-0.9V111.3z"/>
		<path d="M545.1,105.5v5.9h-0.7v-5.9H545.1z M548.5,105.5l-2.8,2.4l3,3.4h-0.8l-3-3.4l2.7-2.4H548.5z"/>
		<path d="M551,114.1h-0.7l1.5-3.4l-2.4-5.3h0.8l2.1,5l-0.3,0l2.1-5h0.7L551,114.1z"/>
		<path d="M560.6,111.3H560v-5.2h-3.3v3.2c0,0.5-0.1,0.8-0.2,1.1c-0.1,0.3-0.3,0.5-0.5,0.7c-0.2,0.2-0.5,0.2-0.9,0.2v-0.6
			c0.3,0,0.5-0.1,0.7-0.3c0.2-0.2,0.3-0.6,0.3-1.1v-3.8h4.7V111.3z"/>
		<path d="M563.3,105.5v5.9h-0.7v-5.9H563.3z M563,107.7h1.7c0.6,0,1.1,0.1,1.5,0.4c0.4,0.3,0.6,0.8,0.6,1.4c0,0.4-0.1,0.8-0.3,1
			c-0.2,0.3-0.4,0.5-0.8,0.6c-0.3,0.1-0.7,0.2-1.1,0.2H563v-0.6h1.7c0.3,0,0.6,0,0.8-0.1c0.2-0.1,0.4-0.2,0.5-0.4
			c0.1-0.2,0.2-0.4,0.2-0.7c0-0.4-0.1-0.7-0.4-0.9c-0.3-0.2-0.6-0.3-1.1-0.3H563V107.7z"/>
		<path d="M571,105.5v0.6h-3.4v-0.6H571z M569.6,105.7v5.7h-0.7v-5.7H569.6z"/>
		<path d="M573.1,114.1h-0.7l1.5-3.4l-2.4-5.3h0.8l2.1,5l-0.3,0l2.1-5h0.7L573.1,114.1z"/>
		<path d="M577.9,114.1v-8.7h0.7v8.7H577.9z M583.2,110c-0.3,0.5-0.6,0.8-1,1.1c-0.4,0.2-0.9,0.4-1.4,0.4c-0.5,0-0.9-0.1-1.3-0.4
			c-0.4-0.3-0.7-0.6-0.9-1.1c-0.2-0.5-0.3-1-0.3-1.6c0-0.6,0.1-1.1,0.3-1.6s0.5-0.8,0.9-1.1c0.4-0.3,0.8-0.4,1.3-0.4
			c0.5,0,1,0.1,1.4,0.4c0.4,0.2,0.8,0.6,1,1.1c0.3,0.5,0.4,1,0.4,1.6C583.6,109,583.5,109.6,583.2,110z M582.6,107.1
			c-0.2-0.4-0.5-0.6-0.8-0.8c-0.3-0.2-0.7-0.3-1.1-0.3c-0.4,0-0.7,0.1-1,0.3c-0.3,0.2-0.6,0.5-0.8,0.9c-0.2,0.4-0.3,0.8-0.3,1.2
			c0,0.5,0.1,0.9,0.3,1.2c0.2,0.4,0.5,0.7,0.8,0.9c0.3,0.2,0.7,0.3,1,0.3c0.4,0,0.8-0.1,1.1-0.3c0.3-0.2,0.6-0.5,0.8-0.8
			c0.2-0.4,0.3-0.8,0.3-1.3C582.9,107.9,582.8,107.5,582.6,107.1z"/>
		<path d="M585.9,105.5v5.9h-0.7v-5.9H585.9z M585.6,107.7h1.7c0.6,0,1.1,0.1,1.5,0.4c0.4,0.3,0.6,0.8,0.6,1.4c0,0.4-0.1,0.8-0.3,1
			c-0.2,0.3-0.4,0.5-0.8,0.6c-0.3,0.1-0.7,0.2-1.1,0.2h-1.7v-0.6h1.7c0.3,0,0.6,0,0.8-0.1s0.4-0.2,0.5-0.4c0.1-0.2,0.2-0.4,0.2-0.7
			c0-0.4-0.1-0.7-0.4-0.9c-0.3-0.2-0.6-0.3-1.1-0.3h-1.7V107.7z M591,105.5v5.9h-0.7v-5.9H591z"/>
	</g>
	<g>
		<path d="M240,53.2V19.1h-21.3v34.1h-5.8v-40h33v40H240z"/>
		<path d="M298,33.3c0,3-0.6,5.7-1.7,8.3s-2.7,4.7-4.7,6.6c-2,1.9-4.3,3.3-6.9,4.4c-2.6,1.1-5.4,1.6-8.3,1.6c-3,0-5.9-0.6-8.5-1.7
			s-4.9-2.6-6.8-4.6c-1.9-1.9-3.5-4.2-4.6-6.8c-1.1-2.6-1.7-5.4-1.7-8.4c0-2.9,0.6-5.7,1.7-8.2c1.2-2.5,2.7-4.7,4.7-6.5
			c2-1.8,4.3-3.3,6.9-4.3c2.6-1,5.3-1.6,8.2-1.6c3,0,5.8,0.5,8.4,1.6c2.6,1.1,4.9,2.6,6.8,4.5c2,1.9,3.5,4.2,4.6,6.7
			C297.4,27.5,298,30.3,298,33.3z M292.2,32.9c0-2.2-0.4-4.2-1.3-6c-0.8-1.8-2-3.4-3.4-4.8c-1.4-1.3-3.1-2.4-5-3.1
			c-1.9-0.7-3.9-1.1-6.1-1.1c-2.2,0-4.3,0.4-6.2,1.1c-1.9,0.8-3.6,1.8-5,3.2c-1.4,1.4-2.5,3-3.3,4.9c-0.8,1.9-1.2,3.9-1.2,6.2
			c0,2.1,0.4,4.1,1.3,6c0.9,1.8,2,3.4,3.5,4.7s3.1,2.4,5,3.1c1.9,0.8,3.9,1.1,6,1.1c2.1,0,4.2-0.4,6.1-1.2c1.9-0.8,3.6-1.9,5-3.2
			s2.5-3,3.4-4.8C291.7,37.1,292.2,35.1,292.2,32.9z"/>
		<path d="M336.4,59.3v-6.1h-31v6.1h-5.8v-12h5.9c3.1-3.9,5.6-8.1,7.5-12.7c1.9-4.6,3.3-9.8,4.2-15.5h-4.4l-2.5-5.9h28.5v34.1h3.5
			v12H336.4z M333,47.3V19.1H323c-0.3,2.2-0.7,4.5-1.3,7c-0.6,2.5-1.4,5-2.3,7.5c-0.9,2.5-1.9,4.9-3.1,7.3c-1.2,2.4-2.4,4.5-3.7,6.4
			H333z"/>
		<path d="M395.9,22.8c-1.5-1.5-3.3-2.7-5.3-3.5c-2-0.9-4.1-1.3-6.4-1.3c-2.2,0-4.3,0.4-6.2,1.1c-1.9,0.8-3.6,1.8-5,3.2
			c-1.4,1.4-2.5,3-3.3,4.9c-0.8,1.9-1.2,3.9-1.2,6.2c0,2.1,0.4,4.1,1.3,6c0.9,1.8,2,3.4,3.5,4.7s3.1,2.4,5,3.1
			c1.9,0.8,3.9,1.1,6,1.1c2.6,0,5-0.6,7.2-1.7c2.2-1.1,4-2.6,5.5-4.5l3.6,4.9c-2,2.3-4.5,4-7.3,5.3c-2.8,1.3-5.8,1.9-9.1,1.9
			c-3,0-5.9-0.6-8.5-1.7c-2.6-1.1-4.9-2.6-6.8-4.6c-1.9-1.9-3.4-4.2-4.6-6.8c-1.1-2.6-1.7-5.4-1.7-8.4c0-2.9,0.6-5.7,1.7-8.2
			c1.2-2.5,2.7-4.7,4.7-6.5c2-1.8,4.3-3.3,6.9-4.3s5.3-1.6,8.2-1.6c3,0,5.9,0.6,8.5,1.7c2.6,1.1,4.9,2.7,6.9,4.6L395.9,22.8z"/>
		<path d="M415,47.3h24.7v5.9h-30.5v-40h28.1v5.9H415v12.2c1.2-0.7,2.4-1.1,3.7-1.3c1.2-0.2,2.5-0.2,3.9-0.2h8.7v5.9h-8.7
			c-1.3,0-2.6,0.1-3.8,0.3c-1.3,0.2-2.5,0.6-3.7,1.3V47.3z"/>
		<path d="M454.9,53.2H449v-40h5.8l-0.1,16.4c0.8-0.4,1.7-0.7,2.5-0.8c0.9-0.2,1.7-0.2,2.6-0.2c0.6,0,1.4,0.1,2.5,0.2
			c1.1,0.1,2.3,0.3,3.5,0.4c1.3,0.1,2.5,0.3,3.8,0.4c1.2,0.1,2.3,0.2,3.2,0.2c0.8,0,1.7-0.1,2.7-0.2c1-0.1,1.9-0.4,2.7-0.8V13.2h5.8
			v40h-5.8V34.6c-0.9,0.4-1.8,0.7-2.7,0.8c-1,0.1-1.9,0.2-2.7,0.2c-0.9,0-2-0.1-3.2-0.2c-1.2-0.1-2.5-0.3-3.8-0.4
			c-1.3-0.1-2.4-0.3-3.5-0.4c-1.1-0.1-1.9-0.2-2.5-0.2c-0.9,0-1.7,0.1-2.6,0.2c-0.9,0.2-1.7,0.4-2.5,0.8V53.2z"/>
		<path d="M496,53.2v-40h5.8v15c1.2,0.6,2.5,1.1,3.7,1.3c1.3,0.2,2.6,0.3,3.9,0.3h6.8c4.3,0,7.7,1,10.2,2.9c2.5,1.9,3.7,4.9,3.7,8.9
			c0,2.4-0.4,4.3-1.3,5.9c-0.9,1.5-2,2.7-3.3,3.6c-1.4,0.9-2.9,1.4-4.5,1.8c-1.7,0.3-3.3,0.5-4.9,0.5H496z M509.4,35.7
			c-1.3,0-2.6-0.1-3.9-0.3c-1.3-0.2-2.5-0.6-3.7-1.3v13.2h15c0.8,0,1.6-0.1,2.5-0.3c0.9-0.2,1.7-0.5,2.4-0.9c0.7-0.4,1.3-1,1.8-1.8
			c0.5-0.7,0.7-1.7,0.7-2.8c0-1.2-0.2-2.1-0.7-2.9c-0.5-0.7-1.1-1.3-1.8-1.8c-0.7-0.4-1.6-0.7-2.5-0.9c-0.9-0.2-1.9-0.3-2.9-0.3
			H509.4z"/>
		<path d="M591,33c0,3-0.5,5.9-1.6,8.4c-1.1,2.6-2.5,4.8-4.4,6.7c-1.9,1.9-4.1,3.4-6.6,4.4c-2.5,1.1-5.2,1.6-8.1,1.6
			c-2.7,0-5.2-0.5-7.6-1.4s-4.5-2.3-6.3-3.9c-1.8-1.7-3.3-3.7-4.5-6c-1.2-2.3-1.9-4.8-2.2-7.5h-5.4v17.9h-5.8v-40h5.8v16.2h5.5
			c0.4-2.6,1.2-4.9,2.4-7.1c1.2-2.1,2.8-4,4.6-5.5c1.8-1.5,3.9-2.7,6.2-3.5c2.3-0.8,4.7-1.3,7.2-1.3c2.8,0,5.5,0.5,8,1.6
			c2.5,1.1,4.7,2.5,6.6,4.4s3.4,4.1,4.4,6.6C590.5,27.2,591,30,591,33z M585.4,32.9c0-2.2-0.4-4.2-1.2-6c-0.8-1.8-1.9-3.4-3.3-4.8
			c-1.4-1.3-3-2.4-4.9-3.1c-1.8-0.7-3.8-1.1-5.8-1.1c-2.1,0-4.1,0.4-6,1.1c-1.8,0.7-3.4,1.7-4.8,3c-1.4,1.3-2.4,2.9-3.2,4.7
			c-0.8,1.8-1.2,3.9-1.2,6.1c0,2.1,0.4,4.1,1.3,6c0.8,1.9,2,3.5,3.4,4.9s3,2.5,4.9,3.2c1.8,0.8,3.8,1.2,5.8,1.2c2.1,0,4.1-0.4,6-1.2
			c1.8-0.8,3.4-1.9,4.8-3.2c1.4-1.4,2.4-3,3.2-4.8C585.1,37.1,585.4,35.1,585.4,32.9z"/>
		<g>
			<path d="M242.1,71.4h5.8v40h-5.8V80.5l-23.5,30.8h-5.8v-40h5.8v30.8L242.1,71.4z"/>
			<path d="M293.7,100.4c0,2-0.4,3.7-1.2,5.1c-0.8,1.4-1.9,2.5-3.2,3.4c-1.3,0.9-2.8,1.5-4.4,1.9c-1.6,0.4-3.3,0.6-4.9,0.6h-20.3
				v-40h20.3c1.7,0,3.2,0.2,4.7,0.7c1.4,0.5,2.7,1.2,3.8,2.1c1.1,0.9,1.9,2.1,2.5,3.4c0.6,1.4,0.9,2.9,0.9,4.7
				c0,1.7-0.3,3.3-0.9,4.7c-0.6,1.4-1.5,2.5-2.7,3.2c0.7,0.3,1.4,0.8,2.1,1.4c0.7,0.6,1.3,1.3,1.8,2.2c0.5,0.9,0.9,1.8,1.2,2.9
				C293.6,97.8,293.7,99,293.7,100.4z M265.5,89.5c1.2-0.7,2.4-1.2,3.7-1.3c1.3-0.2,2.6-0.3,3.9-0.3h6.8c1.8,0,3.3-0.5,4.3-1.4
				c1.1-0.9,1.6-2.3,1.6-4.2c0-1.9-0.6-3.2-1.7-4c-1.1-0.8-2.5-1.1-4.3-1.1h-14.4V89.5z M265.5,105.5h15c0.8,0,1.6-0.1,2.5-0.3
				c0.9-0.2,1.7-0.6,2.4-1.1c0.7-0.5,1.3-1.1,1.8-1.8c0.5-0.7,0.7-1.6,0.7-2.6c0-1.2-0.2-2.1-0.7-2.9c-0.5-0.7-1.1-1.3-1.8-1.8
				c-0.7-0.4-1.6-0.7-2.5-0.9c-0.9-0.2-1.9-0.3-2.9-0.3h-6.8c-1.3,0-2.6,0.1-3.8,0.3c-1.3,0.2-2.5,0.6-3.7,1.3V105.5z"/>
			<path d="M309.2,86.3c1.2,0.6,2.5,1.1,3.7,1.3c1.3,0.2,2.6,0.3,3.9,0.3h5.2c4.3,0,7.7,1,10.2,2.9c2.5,1.9,3.7,4.9,3.7,8.9
				c0,2.4-0.4,4.3-1.3,5.9c-0.9,1.5-2,2.7-3.3,3.6c-1.4,0.9-2.9,1.4-4.5,1.8c-1.7,0.3-3.3,0.5-4.9,0.5h-18.7v-40h5.8V86.3z
				 M322.6,105.5c0.8,0,1.6-0.1,2.5-0.3c0.9-0.2,1.7-0.5,2.4-0.9s1.3-1,1.8-1.8c0.5-0.7,0.7-1.7,0.7-2.8c0-1.2-0.2-2.1-0.7-2.9
				c-0.5-0.7-1.1-1.3-1.8-1.8c-0.8-0.4-1.6-0.7-2.5-0.9c-0.9-0.2-1.9-0.3-2.9-0.3h-5.2c-1.3,0-2.6-0.1-3.9-0.3
				c-1.3-0.2-2.5-0.6-3.7-1.3v13.2H322.6z M341.1,111.4v-40h5.7v40H341.1z"/>
		</g>
	</g>
</g>
<path d="M154.7,75.5c-2.5-8.6-6.9-15.9-11.4-21.7c-4.1-5.5-8.9-10.3-14.4-14.3c-0.6-0.4-0.9-0.7-0.9-0.7l0,0
	c-11.2-7.9-24.8-12.6-39.5-12.6c-7.1,0-13.9,1.1-20.3,3.1c-7.8,2.4-14.2,6-19.2,9.5l0,0c0,0-0.8,0.5-2,1.5c-4.6,3.5-7.8,6.9-9.6,8.9
	c-1.1,1.2-2.1,2.5-3,3.7c-6.1,7.6-12.1,18.1-12.9,30.8c-0.2,2.3-0.1,32.8-0.1,32.8c0,1.8,1.2,3.4,2.9,3.7c2.3,0.4,4.3-1.3,4.3-3.5
	V114V94.7V87l0-2.6c0-1.3,0.9-2.5,2.2-2.8c1.7-0.3,3.2,1,3.2,2.7v0.1h0v10.4v12.4v0.3c0,1.8,1.2,3.4,3,3.8c2.4,0.5,4.6-1.3,4.6-3.7
	v-1.5c0-0.1,0-0.1,0-0.2V74.8h0.1c0.2-1.2,1.3-2.1,2.5-2.1s2.3,0.9,2.5,2.1h0v0.5v9.5l0,38.8c0,1.9,1.3,3.6,3.1,4
	c2.5,0.5,4.7-1.4,4.7-3.8V95.4c0,0,0,0,0,0l0-9.1c0-1.2,0.8-2.3,1.9-2.6c1.7-0.4,3.2,0.9,3.2,2.5v0.1h0l0,24.3c0,1.9,1.3,3.6,3.1,4
	c2.5,0.5,4.7-1.4,4.7-3.8V90.3h0v-0.5c0-1.6,1.1-3.1,2.6-3.4c2.1-0.4,3.9,1.2,3.9,3.2v11.7c0,0.1,0,0.1,0,0.2l0,5.4
	c0,1.9,1.3,3.6,3.1,4c2.5,0.5,4.7-1.4,4.7-3.8v-0.3c0-3.5,1.2-8.4,2.6-12.7c2.1-6.8,3.1-13.9,2.9-21c0-0.8-0.1-1.5,0-2v-0.7
	c0,0,0,0,0-0.1c0,0,0,0,0,0h0c0.1-1.8,1.5-3.2,3.2-3.2s3.2,1.4,3.2,3.2h0v14.5l0,0c0,0,0,0,0,0v0.8c0,0.1,0,0.2,0,0.2
	c-0.2,4.7-1.8,15.8-11,29.2c-1.4,1.6-2.6,3.3-3.8,5c0,0,0,0,0,0l0,0c-3.7,5.5-6.9,11.5-11.6,16.3c-7.8,8-12.3,15.5-28.1,15.8
	c-1.7,0-4.2-0.7-4.4,1.9c-0.1,0.8,0.3,1.6,0.8,1.8c44.7,15.2,103,3.6,108.8-5c0.6-0.9,0.5-1.5,0.1-2c-0.9-1.3-2.2-0.8-3.3-0.2
	c-4.6,2.2-82.4,10.1-48.5-20.9c2.6-2.4,4.6-5,7.9-6.5c6.6-3,13.7-4.2,20.7-5.7c0,4.2,0.1,16.5,0.1,16.5c0,1.9,1.3,3.6,3.1,4
	c2.5,0.5,4.7-1.4,4.7-3.8c0,0,0-11,0-18.7c0.5-0.1,0.9-0.3,1.4-0.4c1.4-0.5,2.8-1.2,4.2-2.1v4.2c0,1.9,1.3,3.6,3.1,4
	c2.5,0.5,4.7-1.4,4.7-3.8v-10.3c0-0.5,0.2-0.9,0.5-1.3c0,0,0,0,0-0.1c1.2-1.4,3.5-0.6,3.5,1.3v9.9c0,1.6,1,3.1,2.6,3.6
	c1.7,0.5,3.4-0.3,4.1-1.7c0.2-0.4,0.9-2.4,1.4-4.2C156.5,107,159.8,92.9,154.7,75.5z M100.2,112c-0.4,0-0.7,0-1.1,0
	c1.3-5,3.6-17.2,2.2-35.8V65.5c0-1.1,0.7-2.1,1.7-2.4c1.5-0.4,2.9,0.8,2.9,2.2v0.5v23.6c0,1.9,1.3,3.6,3.1,4
	c2.5,0.5,4.7-1.4,4.7-3.8v-4.3c0,0,0-0.1,0-0.3c0,0,0,0,0-0.1V69c0-0.9,0.7-1.7,1.7-1.7c0.9,0,1.7,0.7,1.7,1.7l0.1,13.6L117,110
	C111.5,111.1,105.9,111.7,100.2,112z M129,106.4c0-0.1,0-0.2,0-0.2l-0.1-24.9c0,0,0,0,0-0.1v-0.6c0-1.5,1.3-2.8,2.8-2.8
	c1.5,0,2.8,1.3,2.8,2.8v0.2c0,0.1,0,0.2,0,0.3v3.3v10.8v7.4C133,104.2,131.1,105.5,129,106.4z"/>
<g>
	<g>
		<path d="M349.3-84.2h-0.7v-5.2h-3.1v5.2h-0.7V-90h4.4V-84.2z"/>
		<path d="M351.2-81.4V-90h0.7v8.7H351.2z M356.5-85.5c-0.3,0.5-0.6,0.8-1,1.1c-0.4,0.2-0.9,0.4-1.4,0.4c-0.5,0-0.9-0.1-1.3-0.4
			c-0.4-0.3-0.7-0.6-0.9-1.1c-0.2-0.5-0.3-1-0.3-1.6c0-0.6,0.1-1.1,0.3-1.6c0.2-0.5,0.5-0.8,0.9-1.1c0.4-0.3,0.8-0.4,1.3-0.4
			c0.5,0,1,0.1,1.4,0.4c0.4,0.2,0.8,0.6,1,1.1c0.3,0.5,0.4,1,0.4,1.6C356.9-86.5,356.7-85.9,356.5-85.5z M355.9-88.4
			c-0.2-0.4-0.5-0.6-0.8-0.8c-0.3-0.2-0.7-0.3-1.1-0.3c-0.4,0-0.7,0.1-1,0.3c-0.3,0.2-0.6,0.5-0.8,0.9c-0.2,0.4-0.3,0.8-0.3,1.2
			c0,0.5,0.1,0.9,0.3,1.2c0.2,0.4,0.5,0.7,0.8,0.9c0.3,0.2,0.7,0.3,1,0.3c0.4,0,0.8-0.1,1.1-0.3c0.3-0.2,0.6-0.5,0.8-0.8
			c0.2-0.4,0.3-0.8,0.3-1.3C356.2-87.6,356.1-88,355.9-88.4z"/>
		<path d="M358.4-88.7c0.3-0.5,0.6-0.8,1.1-1.1c0.5-0.3,1-0.4,1.5-0.4s1.1,0.1,1.5,0.4c0.5,0.3,0.8,0.6,1.1,1.1
			c0.3,0.5,0.4,1,0.4,1.6c0,0.6-0.1,1.1-0.4,1.6c-0.3,0.5-0.6,0.8-1.1,1.1c-0.5,0.3-1,0.4-1.5,0.4s-1.1-0.1-1.5-0.4
			c-0.5-0.3-0.8-0.6-1.1-1.1c-0.3-0.5-0.4-1-0.4-1.6C358-87.7,358.1-88.2,358.4-88.7z M359-85.8c0.2,0.4,0.5,0.7,0.8,0.9
			c0.4,0.2,0.7,0.3,1.2,0.3c0.4,0,0.8-0.1,1.2-0.3c0.4-0.2,0.6-0.5,0.8-0.9c0.2-0.4,0.3-0.8,0.3-1.3c0-0.5-0.1-0.9-0.3-1.3
			c-0.2-0.4-0.5-0.7-0.8-0.9c-0.4-0.2-0.8-0.3-1.2-0.3c-0.4,0-0.8,0.1-1.2,0.3c-0.4,0.2-0.6,0.5-0.8,0.9c-0.2,0.4-0.3,0.8-0.3,1.3
			C358.7-86.6,358.8-86.2,359-85.8z"/>
		<path d="M365.9-85.8c0.2,0.4,0.5,0.7,0.8,0.9c0.4,0.2,0.7,0.3,1.2,0.3c0.3,0,0.6,0,0.9-0.1c0.3-0.1,0.5-0.2,0.7-0.4
			c0.2-0.2,0.3-0.3,0.4-0.5v0.8c-0.2,0.2-0.5,0.4-0.8,0.5c-0.4,0.1-0.8,0.2-1.2,0.2c-0.6,0-1.1-0.1-1.5-0.4
			c-0.5-0.3-0.8-0.6-1.1-1.1c-0.3-0.5-0.4-1-0.4-1.6c0-0.6,0.1-1.1,0.4-1.6c0.3-0.5,0.6-0.8,1.1-1.1c0.5-0.3,1-0.4,1.5-0.4
			c0.4,0,0.8,0.1,1.2,0.2c0.4,0.2,0.6,0.3,0.8,0.5v0.8c-0.1-0.2-0.2-0.3-0.4-0.5c-0.2-0.1-0.4-0.3-0.7-0.4c-0.3-0.1-0.6-0.1-0.9-0.1
			c-0.4,0-0.8,0.1-1.2,0.3c-0.4,0.2-0.6,0.5-0.8,0.9c-0.2,0.4-0.3,0.8-0.3,1.3C365.6-86.6,365.7-86.2,365.9-85.8z"/>
		<path d="M374-90v0.6h-3.4V-90H374z M372.7-89.8v5.7H372v-5.7H372.7z"/>
		<path d="M375-81.4V-90h0.7v8.7H375z M380.3-85.5c-0.3,0.5-0.6,0.8-1,1.1c-0.4,0.2-0.9,0.4-1.4,0.4c-0.5,0-0.9-0.1-1.3-0.4
			c-0.4-0.3-0.7-0.6-0.9-1.1c-0.2-0.5-0.3-1-0.3-1.6c0-0.6,0.1-1.1,0.3-1.6c0.2-0.5,0.5-0.8,0.9-1.1c0.4-0.3,0.8-0.4,1.3-0.4
			c0.5,0,1,0.1,1.4,0.4c0.4,0.2,0.8,0.6,1,1.1c0.3,0.5,0.4,1,0.4,1.6C380.7-86.5,380.6-85.9,380.3-85.5z M379.7-88.4
			c-0.2-0.4-0.5-0.6-0.8-0.8c-0.3-0.2-0.7-0.3-1.1-0.3c-0.4,0-0.7,0.1-1,0.3c-0.3,0.2-0.6,0.5-0.8,0.9c-0.2,0.4-0.3,0.8-0.3,1.2
			c0,0.5,0.1,0.9,0.3,1.2c0.2,0.4,0.5,0.7,0.8,0.9c0.3,0.2,0.7,0.3,1,0.3c0.4,0,0.8-0.1,1.1-0.3c0.3-0.2,0.6-0.5,0.8-0.8
			c0.2-0.4,0.3-0.8,0.3-1.3C380-87.6,379.9-88,379.7-88.4z"/>
		<path d="M382.7-85.2c0.1,0.2,0.3,0.3,0.5,0.4c0.2,0.1,0.5,0.1,0.7,0.1c0.4,0,0.7-0.1,1-0.2c0.3-0.1,0.5-0.3,0.7-0.6
			c0.2-0.3,0.2-0.6,0.2-0.9L386-86c0,0.4-0.1,0.7-0.3,1c-0.2,0.3-0.5,0.5-0.8,0.7s-0.7,0.2-1.1,0.2c-0.3,0-0.7-0.1-1-0.2
			c-0.3-0.1-0.5-0.3-0.7-0.6c-0.2-0.3-0.3-0.6-0.3-1c0-0.4,0.1-0.8,0.3-1c0.2-0.3,0.5-0.5,0.9-0.7c0.4-0.1,0.8-0.2,1.2-0.2
			c0.4,0,0.7,0,0.9,0.1s0.5,0.2,0.6,0.3s0.3,0.2,0.3,0.3v0.4c-0.2-0.2-0.5-0.3-0.8-0.4c-0.3-0.1-0.6-0.2-1-0.2
			c-0.3,0-0.6,0.1-0.9,0.2c-0.3,0.1-0.5,0.3-0.6,0.5c-0.2,0.2-0.2,0.5-0.2,0.8C382.5-85.6,382.5-85.4,382.7-85.2z M382.3-89.4
			c0.2-0.2,0.5-0.4,0.9-0.5c0.4-0.2,0.8-0.3,1.3-0.3c0.4,0,0.8,0.1,1.1,0.2c0.3,0.2,0.5,0.4,0.7,0.6c0.2,0.3,0.2,0.6,0.2,1v4.1h-0.7
			v-4.1c0-0.4-0.1-0.7-0.4-0.9s-0.6-0.3-1-0.3c-0.3,0-0.5,0-0.8,0.1c-0.2,0.1-0.4,0.2-0.6,0.3s-0.3,0.2-0.4,0.3L382.3-89.4z"/>
		<path d="M389.1-90v5.9h-0.7V-90H389.1z M388.9-87.6h4.3v0.6h-4.3V-87.6z M393.4-90v5.9h-0.7V-90H393.4z"/>
		<path d="M395.8-85.8c0.2,0.4,0.5,0.7,0.8,0.9c0.4,0.2,0.7,0.3,1.2,0.3c0.3,0,0.6,0,0.9-0.1c0.3-0.1,0.5-0.2,0.7-0.4
			c0.2-0.2,0.3-0.3,0.4-0.5v0.8c-0.2,0.2-0.5,0.4-0.8,0.5c-0.4,0.1-0.8,0.2-1.2,0.2c-0.6,0-1.1-0.1-1.5-0.4
			c-0.5-0.3-0.8-0.6-1.1-1.1c-0.3-0.5-0.4-1-0.4-1.6c0-0.6,0.1-1.1,0.4-1.6c0.3-0.5,0.6-0.8,1.1-1.1c0.5-0.3,1-0.4,1.5-0.4
			c0.4,0,0.8,0.1,1.2,0.2c0.4,0.2,0.6,0.3,0.8,0.5v0.8c-0.1-0.2-0.2-0.3-0.4-0.5c-0.2-0.1-0.4-0.3-0.7-0.4c-0.3-0.1-0.6-0.1-0.9-0.1
			c-0.4,0-0.8,0.1-1.2,0.3c-0.4,0.2-0.6,0.5-0.8,0.9c-0.2,0.4-0.3,0.8-0.3,1.3C395.5-86.6,395.6-86.2,395.8-85.8z"/>
		<path d="M403.9-90v0.6h-3.4V-90H403.9z M402.6-89.8v5.7h-0.7v-5.7H402.6z"/>
		<path d="M405.6-90v5.9H405V-90H405.6z M405.3-87.4h1.6c0.2,0,0.3,0,0.5-0.1c0.2,0,0.3-0.1,0.4-0.2c0.1-0.1,0.2-0.2,0.3-0.3
			c0.1-0.1,0.1-0.3,0.1-0.5c0-0.3-0.1-0.6-0.4-0.8c-0.3-0.2-0.6-0.3-1-0.3h-1.6V-90h1.6c0.4,0,0.7,0.1,1,0.2
			c0.3,0.1,0.5,0.3,0.7,0.5c0.2,0.2,0.3,0.5,0.3,0.9c0,0.3-0.1,0.6-0.3,0.8s-0.4,0.4-0.7,0.5c-0.3,0.1-0.6,0.1-1,0.1h-1.6V-87.4z
			 M407-87.2c0.4,0,0.8,0,1.1,0.1c0.3,0.1,0.6,0.2,0.8,0.4c0.2,0.2,0.3,0.5,0.3,0.9c0,0.4-0.1,0.8-0.4,1.1c-0.3,0.3-0.8,0.5-1.4,0.5
			h-1.9v-0.6h1.8c0.5,0,0.8-0.1,1-0.3c0.2-0.2,0.3-0.5,0.3-0.8c0-0.2,0-0.4-0.1-0.5c-0.1-0.1-0.2-0.2-0.3-0.3
			c-0.1-0.1-0.3-0.1-0.5-0.2c-0.2,0-0.4-0.1-0.6-0.1h-1.7v-0.3H407z"/>
		<path d="M410.4-88.7c0.3-0.5,0.6-0.8,1.1-1.1c0.5-0.3,1-0.4,1.5-0.4s1.1,0.1,1.5,0.4c0.5,0.3,0.8,0.6,1.1,1.1
			c0.3,0.5,0.4,1,0.4,1.6c0,0.6-0.1,1.1-0.4,1.6c-0.3,0.5-0.6,0.8-1.1,1.1c-0.5,0.3-1,0.4-1.5,0.4s-1.1-0.1-1.5-0.4
			c-0.5-0.3-0.8-0.6-1.1-1.1c-0.3-0.5-0.4-1-0.4-1.6C410-87.7,410.2-88.2,410.4-88.7z M411-85.8c0.2,0.4,0.5,0.7,0.8,0.9
			s0.7,0.3,1.2,0.3c0.4,0,0.8-0.1,1.2-0.3c0.4-0.2,0.6-0.5,0.8-0.9c0.2-0.4,0.3-0.8,0.3-1.3c0-0.5-0.1-0.9-0.3-1.3
			c-0.2-0.4-0.5-0.7-0.8-0.9c-0.4-0.2-0.8-0.3-1.2-0.3c-0.4,0-0.8,0.1-1.2,0.3c-0.4,0.2-0.6,0.5-0.8,0.9c-0.2,0.4-0.3,0.8-0.3,1.3
			C410.7-86.6,410.8-86.2,411-85.8z"/>
		<path d="M421.9-90v5.9h-0.7V-90H421.9z M421.7-87.4h1.6c0.2,0,0.3,0,0.5-0.1c0.2,0,0.3-0.1,0.4-0.2c0.1-0.1,0.2-0.2,0.3-0.3
			c0.1-0.1,0.1-0.3,0.1-0.5c0-0.3-0.1-0.6-0.4-0.8c-0.3-0.2-0.6-0.3-1-0.3h-1.6V-90h1.6c0.4,0,0.7,0.1,1,0.2
			c0.3,0.1,0.5,0.3,0.7,0.5c0.2,0.2,0.3,0.5,0.3,0.9c0,0.3-0.1,0.6-0.3,0.8c-0.2,0.2-0.4,0.4-0.7,0.5c-0.3,0.1-0.6,0.1-1,0.1h-1.6
			V-87.4z M423.3-87.2c0.4,0,0.8,0,1.1,0.1c0.3,0.1,0.6,0.2,0.8,0.4c0.2,0.2,0.3,0.5,0.3,0.9c0,0.4-0.1,0.8-0.4,1.1
			c-0.3,0.3-0.8,0.5-1.4,0.5h-1.9v-0.6h1.8c0.5,0,0.8-0.1,1-0.3c0.2-0.2,0.3-0.5,0.3-0.8c0-0.2,0-0.4-0.1-0.5
			c-0.1-0.1-0.2-0.2-0.3-0.3c-0.1-0.1-0.3-0.1-0.5-0.2c-0.2,0-0.4-0.1-0.6-0.1h-1.7v-0.3H423.3z"/>
		<path d="M426.8-88.7c0.3-0.5,0.6-0.8,1.1-1.1c0.5-0.3,1-0.4,1.5-0.4s1.1,0.1,1.5,0.4c0.5,0.3,0.8,0.6,1.1,1.1
			c0.3,0.5,0.4,1,0.4,1.6c0,0.6-0.1,1.1-0.4,1.6c-0.3,0.5-0.6,0.8-1.1,1.1c-0.5,0.3-1,0.4-1.5,0.4s-1.1-0.1-1.5-0.4
			c-0.5-0.3-0.8-0.6-1.1-1.1c-0.3-0.5-0.4-1-0.4-1.6C426.4-87.7,426.5-88.2,426.8-88.7z M427.3-85.8c0.2,0.4,0.5,0.7,0.8,0.9
			c0.4,0.2,0.7,0.3,1.2,0.3c0.4,0,0.8-0.1,1.2-0.3c0.4-0.2,0.6-0.5,0.8-0.9c0.2-0.4,0.3-0.8,0.3-1.3c0-0.5-0.1-0.9-0.3-1.3
			c-0.2-0.4-0.5-0.7-0.8-0.9c-0.4-0.2-0.8-0.3-1.2-0.3c-0.4,0-0.8,0.1-1.2,0.3c-0.4,0.2-0.6,0.5-0.8,0.9c-0.2,0.4-0.3,0.8-0.3,1.3
			C427-86.6,427.1-86.2,427.3-85.8z"/>
		<path d="M434.2-85.8c0.2,0.4,0.5,0.7,0.8,0.9s0.7,0.3,1.2,0.3c0.3,0,0.6,0,0.9-0.1c0.3-0.1,0.5-0.2,0.7-0.4
			c0.2-0.2,0.3-0.3,0.4-0.5v0.8c-0.2,0.2-0.5,0.4-0.8,0.5c-0.4,0.1-0.8,0.2-1.2,0.2c-0.6,0-1.1-0.1-1.5-0.4
			c-0.5-0.3-0.8-0.6-1.1-1.1c-0.3-0.5-0.4-1-0.4-1.6c0-0.6,0.1-1.1,0.4-1.6c0.3-0.5,0.6-0.8,1.1-1.1c0.5-0.3,1-0.4,1.5-0.4
			c0.4,0,0.8,0.1,1.2,0.2c0.4,0.2,0.6,0.3,0.8,0.5v0.8c-0.1-0.2-0.2-0.3-0.4-0.5c-0.2-0.1-0.4-0.3-0.7-0.4c-0.3-0.1-0.6-0.1-0.9-0.1
			c-0.4,0-0.8,0.1-1.2,0.3s-0.6,0.5-0.8,0.9c-0.2,0.4-0.3,0.8-0.3,1.3C433.9-86.6,434-86.2,434.2-85.8z"/>
		<path d="M442.4-90v0.6H439V-90H442.4z M441-89.8v5.7h-0.7v-5.7H441z"/>
		<path d="M443.2-88.7c0.3-0.5,0.6-0.8,1.1-1.1c0.5-0.3,1-0.4,1.5-0.4s1.1,0.1,1.5,0.4c0.5,0.3,0.8,0.6,1.1,1.1
			c0.3,0.5,0.4,1,0.4,1.6c0,0.6-0.1,1.1-0.4,1.6c-0.3,0.5-0.6,0.8-1.1,1.1c-0.5,0.3-1,0.4-1.5,0.4s-1.1-0.1-1.5-0.4
			c-0.5-0.3-0.8-0.6-1.1-1.1c-0.3-0.5-0.4-1-0.4-1.6C442.8-87.7,442.9-88.2,443.2-88.7z M443.7-85.8c0.2,0.4,0.5,0.7,0.8,0.9
			c0.4,0.2,0.7,0.3,1.2,0.3c0.4,0,0.8-0.1,1.2-0.3c0.4-0.2,0.6-0.5,0.8-0.9c0.2-0.4,0.3-0.8,0.3-1.3c0-0.5-0.1-0.9-0.3-1.3
			c-0.2-0.4-0.5-0.7-0.8-0.9c-0.4-0.2-0.8-0.3-1.2-0.3c-0.4,0-0.8,0.1-1.2,0.3c-0.4,0.2-0.6,0.5-0.8,0.9c-0.2,0.4-0.3,0.8-0.3,1.3
			C443.4-86.6,443.5-86.2,443.7-85.8z"/>
		<path d="M450.5-88.3c0,0.4,0.1,0.8,0.2,1c0.1,0.3,0.3,0.4,0.5,0.6c0.2,0.1,0.6,0.2,1,0.2v0.6c-0.6,0-1-0.1-1.4-0.2
			c-0.3-0.2-0.6-0.4-0.7-0.8c-0.1-0.4-0.2-0.8-0.2-1.4V-90h0.7V-88.3z M452.1-86.6h1.7v0.6h-1.7V-86.6z M454.1-90v5.9h-0.7V-90
			H454.1z"/>
		<path d="M456.6-90v5.9H456V-90H456.6z M456.4-87.6h4.3v0.6h-4.3V-87.6z M460.9-90v5.9h-0.7V-90H460.9z"/>
		<path d="M462.8-88.7c0.3-0.5,0.6-0.8,1.1-1.1c0.5-0.3,1-0.4,1.5-0.4s1.1,0.1,1.5,0.4c0.5,0.3,0.8,0.6,1.1,1.1
			c0.3,0.5,0.4,1,0.4,1.6c0,0.6-0.1,1.1-0.4,1.6c-0.3,0.5-0.6,0.8-1.1,1.1c-0.5,0.3-1,0.4-1.5,0.4s-1.1-0.1-1.5-0.4
			c-0.5-0.3-0.8-0.6-1.1-1.1c-0.3-0.5-0.4-1-0.4-1.6C462.4-87.7,462.5-88.2,462.8-88.7z M463.3-85.8c0.2,0.4,0.5,0.7,0.8,0.9
			c0.4,0.2,0.7,0.3,1.2,0.3c0.4,0,0.8-0.1,1.2-0.3c0.4-0.2,0.6-0.5,0.8-0.9c0.2-0.4,0.3-0.8,0.3-1.3c0-0.5-0.1-0.9-0.3-1.3
			c-0.2-0.4-0.5-0.7-0.8-0.9c-0.4-0.2-0.8-0.3-1.2-0.3c-0.4,0-0.8,0.1-1.2,0.3c-0.4,0.2-0.6,0.5-0.8,0.9c-0.2,0.4-0.3,0.8-0.3,1.3
			C463-86.6,463.1-86.2,463.3-85.8z"/>
		<path d="M470.1-85.2c0.1,0.2,0.3,0.3,0.5,0.4c0.2,0.1,0.5,0.1,0.7,0.1c0.4,0,0.7-0.1,1-0.2c0.3-0.1,0.5-0.3,0.7-0.6
			c0.2-0.3,0.2-0.6,0.2-0.9l0.2,0.4c0,0.4-0.1,0.7-0.3,1c-0.2,0.3-0.5,0.5-0.8,0.7s-0.7,0.2-1.1,0.2c-0.3,0-0.7-0.1-1-0.2
			c-0.3-0.1-0.5-0.3-0.7-0.6c-0.2-0.3-0.3-0.6-0.3-1c0-0.4,0.1-0.8,0.3-1c0.2-0.3,0.5-0.5,0.9-0.7c0.4-0.1,0.8-0.2,1.2-0.2
			c0.4,0,0.7,0,0.9,0.1c0.3,0.1,0.5,0.2,0.6,0.3c0.2,0.1,0.3,0.2,0.3,0.3v0.4c-0.2-0.2-0.5-0.3-0.8-0.4c-0.3-0.1-0.6-0.2-1-0.2
			c-0.3,0-0.6,0.1-0.9,0.2c-0.3,0.1-0.5,0.3-0.6,0.5c-0.2,0.2-0.2,0.5-0.2,0.8C469.9-85.6,470-85.4,470.1-85.2z M469.8-89.4
			c0.2-0.2,0.5-0.4,0.9-0.5c0.4-0.2,0.8-0.3,1.3-0.3c0.4,0,0.8,0.1,1.1,0.2c0.3,0.2,0.5,0.4,0.7,0.6c0.2,0.3,0.2,0.6,0.2,1v4.1h-0.7
			v-4.1c0-0.4-0.1-0.7-0.4-0.9s-0.6-0.3-1-0.3c-0.3,0-0.5,0-0.8,0.1c-0.2,0.1-0.4,0.2-0.6,0.3s-0.3,0.2-0.4,0.3L469.8-89.4z"/>
		<path d="M476.5-84.6c-0.4-0.4-0.7-0.8-0.7-1.4h0.7c0.1,0.4,0.2,0.7,0.5,1c0.3,0.3,0.7,0.4,1.2,0.4c0.3,0,0.6,0,0.8-0.1
			c0.2-0.1,0.4-0.2,0.6-0.4c0.2-0.2,0.2-0.4,0.2-0.7c0-0.3-0.1-0.5-0.2-0.7c-0.1-0.2-0.3-0.3-0.6-0.4c-0.3-0.1-0.5-0.1-0.9-0.1v-0.4
			c0.7,0,1.3,0.1,1.7,0.4c0.4,0.3,0.6,0.7,0.6,1.2c0,0.4-0.1,0.7-0.3,1c-0.2,0.3-0.5,0.5-0.8,0.6c-0.3,0.1-0.7,0.2-1.1,0.2
			C477.5-84,476.9-84.2,476.5-84.6z M478.1-87.6c0.5,0,0.8-0.1,1.1-0.3c0.2-0.2,0.4-0.4,0.4-0.7c0-0.3-0.1-0.5-0.4-0.7
			c-0.2-0.2-0.6-0.3-0.9-0.3c-0.3,0-0.6,0.1-0.8,0.2c-0.2,0.1-0.4,0.3-0.5,0.5c-0.1,0.2-0.2,0.4-0.2,0.6h-0.7c0-0.3,0.1-0.6,0.3-0.9
			c0.2-0.3,0.4-0.5,0.8-0.6c0.3-0.2,0.7-0.2,1.1-0.2c0.4,0,0.7,0.1,1,0.2c0.3,0.1,0.5,0.3,0.7,0.5c0.2,0.2,0.3,0.5,0.3,0.8
			c0,0.4-0.2,0.8-0.5,1c-0.4,0.3-0.9,0.4-1.5,0.4V-87.6z"/>
		<path d="M482-83.7l0.1-1l4.5-5.7l-0.1,1L482-83.7z M482.7-84.7l-0.7,0.9V-90h0.7V-84.7z M486.6-84.2h-0.7v-5.4l0.7-0.9V-84.2z"/>
		<path d="M488.9-85.2c0.1,0.2,0.3,0.3,0.5,0.4c0.2,0.1,0.5,0.1,0.7,0.1c0.4,0,0.7-0.1,1-0.2c0.3-0.1,0.5-0.3,0.7-0.6
			c0.2-0.3,0.2-0.6,0.2-0.9l0.2,0.4c0,0.4-0.1,0.7-0.3,1c-0.2,0.3-0.5,0.5-0.8,0.7S490.4-84,490-84c-0.3,0-0.7-0.1-1-0.2
			c-0.3-0.1-0.5-0.3-0.7-0.6c-0.2-0.3-0.3-0.6-0.3-1c0-0.4,0.1-0.8,0.3-1c0.2-0.3,0.5-0.5,0.9-0.7c0.4-0.1,0.8-0.2,1.2-0.2
			c0.4,0,0.7,0,0.9,0.1c0.3,0.1,0.5,0.2,0.6,0.3c0.2,0.1,0.3,0.2,0.3,0.3v0.4c-0.2-0.2-0.5-0.3-0.8-0.4c-0.3-0.1-0.6-0.2-1-0.2
			c-0.3,0-0.6,0.1-0.9,0.2c-0.3,0.1-0.5,0.3-0.6,0.5c-0.2,0.2-0.2,0.5-0.2,0.8C488.7-85.6,488.8-85.4,488.9-85.2z M488.5-89.4
			c0.2-0.2,0.5-0.4,0.9-0.5c0.4-0.2,0.8-0.3,1.3-0.3c0.4,0,0.8,0.1,1.1,0.2c0.3,0.2,0.5,0.4,0.7,0.6c0.2,0.3,0.2,0.6,0.2,1v4.1H492
			v-4.1c0-0.4-0.1-0.7-0.4-0.9s-0.6-0.3-1-0.3c-0.3,0-0.5,0-0.8,0.1c-0.2,0.1-0.4,0.2-0.6,0.3s-0.3,0.2-0.4,0.3L488.5-89.4z"/>
		<path d="M497.2-90v0.6h-3.4V-90H497.2z M495.9-89.8v5.7h-0.7v-5.7H495.9z"/>
		<path d="M498.5-85.8c0.2,0.4,0.5,0.7,0.8,0.9s0.7,0.3,1.2,0.3c0.3,0,0.6,0,0.9-0.1c0.3-0.1,0.5-0.2,0.7-0.4
			c0.2-0.2,0.3-0.3,0.4-0.5v0.8c-0.2,0.2-0.5,0.4-0.8,0.5c-0.4,0.1-0.8,0.2-1.2,0.2c-0.6,0-1.1-0.1-1.5-0.4
			c-0.5-0.3-0.8-0.6-1.1-1.1c-0.3-0.5-0.4-1-0.4-1.6c0-0.6,0.1-1.1,0.4-1.6c0.3-0.5,0.6-0.8,1.1-1.1c0.5-0.3,1-0.4,1.5-0.4
			c0.4,0,0.8,0.1,1.2,0.2c0.4,0.2,0.6,0.3,0.8,0.5v0.8c-0.1-0.2-0.2-0.3-0.4-0.5c-0.2-0.1-0.4-0.3-0.7-0.4c-0.3-0.1-0.6-0.1-0.9-0.1
			c-0.4,0-0.8,0.1-1.2,0.3s-0.6,0.5-0.8,0.9c-0.2,0.4-0.3,0.8-0.3,1.3C498.2-86.6,498.3-86.2,498.5-85.8z"/>
		<path d="M504.8-90v5.9h-0.7V-90H504.8z M508.2-90l-2.8,2.4l3,3.4h-0.8l-3-3.4l2.7-2.4H508.2z"/>
		<path d="M509.5-88.7c0.3-0.5,0.6-0.8,1.1-1.1c0.5-0.3,1-0.4,1.5-0.4c0.6,0,1.1,0.1,1.5,0.4c0.5,0.3,0.8,0.6,1.1,1.1
			c0.3,0.5,0.4,1,0.4,1.6c0,0.6-0.1,1.1-0.4,1.6c-0.3,0.5-0.6,0.8-1.1,1.1c-0.5,0.3-1,0.4-1.5,0.4c-0.6,0-1.1-0.1-1.5-0.4
			c-0.5-0.3-0.8-0.6-1.1-1.1c-0.3-0.5-0.4-1-0.4-1.6C509.1-87.7,509.2-88.2,509.5-88.7z M510.1-85.8c0.2,0.4,0.5,0.7,0.8,0.9
			c0.4,0.2,0.7,0.3,1.2,0.3c0.4,0,0.8-0.1,1.2-0.3c0.4-0.2,0.6-0.5,0.8-0.9c0.2-0.4,0.3-0.8,0.3-1.3c0-0.5-0.1-0.9-0.3-1.3
			c-0.2-0.4-0.5-0.7-0.8-0.9c-0.4-0.2-0.8-0.3-1.2-0.3c-0.4,0-0.8,0.1-1.2,0.3c-0.4,0.2-0.6,0.5-0.8,0.9c-0.2,0.4-0.3,0.8-0.3,1.3
			C509.8-86.6,509.9-86.2,510.1-85.8z"/>
		<path d="M516.6-83.7l0.1-1l4.5-5.7l-0.1,1L516.6-83.7z M517.2-84.7l-0.7,0.9V-90h0.7V-84.7z M517.4-93c0,0.2,0,0.4,0.1,0.6
			c0.1,0.2,0.2,0.4,0.5,0.5c0.2,0.1,0.5,0.2,0.8,0.2c0.3,0,0.6-0.1,0.8-0.2c0.2-0.1,0.4-0.3,0.5-0.5c0.1-0.2,0.1-0.4,0.1-0.6h0.6
			c0,0.3-0.1,0.6-0.2,0.8c-0.2,0.3-0.4,0.5-0.7,0.7c-0.3,0.2-0.7,0.3-1.1,0.3c-0.4,0-0.8-0.1-1.1-0.3c-0.3-0.2-0.5-0.4-0.7-0.7
			c-0.2-0.3-0.2-0.6-0.2-0.8H517.4z M521.1-84.2h-0.7v-5.4l0.7-0.9V-84.2z"/>
		<path d="M527.6-90v5.9h-0.7V-90H527.6z M530.9-90l-2.8,2.4l3,3.4h-0.8l-3-3.4l2.7-2.4H530.9z"/>
		<path d="M533.4-81.4h-0.7l1.5-3.4l-2.4-5.3h0.8l2.1,5l-0.3,0l2.1-5h0.7L533.4-81.4z"/>
		<path d="M543.1-84.2h-0.7v-5.2h-3.3v3.2c0,0.5-0.1,0.8-0.2,1.1c-0.1,0.3-0.3,0.5-0.5,0.7c-0.2,0.2-0.5,0.2-0.9,0.2v-0.6
			c0.3,0,0.5-0.1,0.7-0.3c0.2-0.2,0.3-0.6,0.3-1.1V-90h4.7V-84.2z"/>
		<path d="M545.7-90v5.9H545V-90H545.7z M545.4-87.8h1.7c0.6,0,1.1,0.1,1.5,0.4c0.4,0.3,0.6,0.8,0.6,1.4c0,0.4-0.1,0.8-0.3,1
			c-0.2,0.3-0.4,0.5-0.8,0.6c-0.3,0.1-0.7,0.2-1.1,0.2h-1.7v-0.6h1.7c0.3,0,0.6,0,0.8-0.1c0.2-0.1,0.4-0.2,0.5-0.4
			c0.1-0.2,0.2-0.4,0.2-0.7c0-0.4-0.1-0.7-0.4-0.9c-0.3-0.2-0.6-0.3-1.1-0.3h-1.7V-87.8z"/>
		<path d="M553.4-90v0.6h-3.4V-90H553.4z M552-89.8v5.7h-0.7v-5.7H552z"/>
		<path d="M555.5-81.4h-0.7l1.5-3.4l-2.4-5.3h0.8l2.1,5l-0.3,0l2.1-5h0.7L555.5-81.4z"/>
		<path d="M560.4-81.4V-90h0.7v8.7H560.4z M565.6-85.5c-0.3,0.5-0.6,0.8-1,1.1c-0.4,0.2-0.9,0.4-1.4,0.4c-0.5,0-0.9-0.1-1.3-0.4
			c-0.4-0.3-0.7-0.6-0.9-1.1c-0.2-0.5-0.3-1-0.3-1.6c0-0.6,0.1-1.1,0.3-1.6s0.5-0.8,0.9-1.1c0.4-0.3,0.8-0.4,1.3-0.4
			c0.5,0,1,0.1,1.4,0.4c0.4,0.2,0.8,0.6,1,1.1c0.3,0.5,0.4,1,0.4,1.6C566-86.5,565.9-85.9,565.6-85.5z M565-88.4
			c-0.2-0.4-0.5-0.6-0.8-0.8c-0.3-0.2-0.7-0.3-1.1-0.3c-0.4,0-0.7,0.1-1,0.3c-0.3,0.2-0.6,0.5-0.8,0.9c-0.2,0.4-0.3,0.8-0.3,1.2
			c0,0.5,0.1,0.9,0.3,1.2c0.2,0.4,0.5,0.7,0.8,0.9c0.3,0.2,0.7,0.3,1,0.3c0.4,0,0.8-0.1,1.1-0.3c0.3-0.2,0.6-0.5,0.8-0.8
			c0.2-0.4,0.3-0.8,0.3-1.3C565.4-87.6,565.3-88,565-88.4z"/>
		<path d="M568.3-90v5.9h-0.7V-90H568.3z M568-87.8h1.7c0.6,0,1.1,0.1,1.5,0.4c0.4,0.3,0.6,0.8,0.6,1.4c0,0.4-0.1,0.8-0.3,1
			c-0.2,0.3-0.4,0.5-0.8,0.6c-0.3,0.1-0.7,0.2-1.1,0.2H568v-0.6h1.7c0.3,0,0.6,0,0.8-0.1c0.2-0.1,0.4-0.2,0.5-0.4
			c0.1-0.2,0.2-0.4,0.2-0.7c0-0.4-0.1-0.7-0.4-0.9c-0.3-0.2-0.6-0.3-1.1-0.3H568V-87.8z M573.4-90v5.9h-0.7V-90H573.4z"/>
	</g>
	<g>
		<path d="M222.4-142.3v-34.1H201v34.1h-5.8v-40h33v40H222.4z"/>
		<path d="M280.4-162.2c0,3-0.6,5.7-1.7,8.3s-2.7,4.7-4.7,6.6c-2,1.9-4.3,3.3-6.9,4.4c-2.6,1.1-5.4,1.6-8.3,1.6
			c-3,0-5.9-0.6-8.5-1.7c-2.6-1.1-4.9-2.6-6.8-4.6c-1.9-1.9-3.5-4.2-4.6-6.8c-1.1-2.6-1.7-5.4-1.7-8.4c0-2.9,0.6-5.7,1.7-8.2
			c1.2-2.5,2.7-4.7,4.7-6.5c2-1.8,4.3-3.3,6.9-4.3c2.6-1,5.3-1.6,8.2-1.6c3,0,5.8,0.5,8.4,1.6c2.6,1.1,4.9,2.6,6.8,4.5
			c2,1.9,3.5,4.2,4.6,6.7C279.9-168,280.4-165.2,280.4-162.2z M274.6-162.6c0-2.2-0.4-4.2-1.3-6c-0.8-1.8-2-3.4-3.4-4.8
			c-1.4-1.3-3.1-2.4-5-3.1c-1.9-0.7-3.9-1.1-6.1-1.1c-2.2,0-4.3,0.4-6.2,1.1c-1.9,0.8-3.6,1.8-5,3.2c-1.4,1.4-2.5,3-3.3,4.9
			c-0.8,1.9-1.2,3.9-1.2,6.2c0,2.1,0.4,4.1,1.3,6c0.9,1.8,2,3.4,3.5,4.7s3.1,2.4,5,3.1c1.9,0.8,3.9,1.1,6,1.1c2.1,0,4.2-0.4,6.1-1.2
			c1.9-0.8,3.6-1.9,5-3.2c1.4-1.4,2.5-3,3.4-4.8C274.2-158.4,274.6-160.4,274.6-162.6z"/>
		<path d="M318.9-136.2v-6.1h-31v6.1H282v-12h5.9c3.1-3.9,5.6-8.1,7.5-12.7c1.9-4.6,3.3-9.8,4.2-15.5h-4.4l-2.5-5.9h28.5v34.1h3.5
			v12H318.9z M315.4-148.2v-28.2h-9.9c-0.3,2.2-0.7,4.5-1.3,7c-0.6,2.5-1.4,5-2.3,7.5c-0.9,2.5-1.9,4.9-3.1,7.3
			c-1.2,2.4-2.4,4.5-3.7,6.4H315.4z"/>
		<path d="M378.3-172.7c-1.5-1.5-3.3-2.7-5.3-3.5c-2-0.9-4.1-1.3-6.4-1.3c-2.2,0-4.3,0.4-6.2,1.1c-1.9,0.8-3.6,1.8-5,3.2
			c-1.4,1.4-2.5,3-3.3,4.9c-0.8,1.9-1.2,3.9-1.2,6.2c0,2.1,0.4,4.1,1.3,6c0.9,1.8,2,3.4,3.5,4.7s3.1,2.4,5,3.1
			c1.9,0.8,3.9,1.1,6,1.1c2.6,0,5-0.6,7.2-1.7c2.2-1.1,4-2.6,5.5-4.5l3.6,4.9c-2,2.3-4.5,4-7.3,5.3c-2.8,1.3-5.8,1.9-9.1,1.9
			c-3,0-5.9-0.6-8.5-1.7c-2.6-1.1-4.9-2.6-6.8-4.6c-1.9-1.9-3.4-4.2-4.6-6.8c-1.1-2.6-1.7-5.4-1.7-8.4c0-2.9,0.6-5.7,1.7-8.2
			c1.2-2.5,2.7-4.7,4.7-6.5c2-1.8,4.3-3.3,6.9-4.3c2.6-1,5.3-1.6,8.2-1.6c3,0,5.9,0.6,8.5,1.7c2.6,1.1,4.9,2.7,6.9,4.6L378.3-172.7z
			"/>
		<path d="M397.4-148.2h24.7v5.9h-30.5v-40h28.1v5.9h-22.3v12.2c1.2-0.7,2.4-1.1,3.7-1.3c1.2-0.2,2.5-0.2,3.9-0.2h8.7v5.9H405
			c-1.3,0-2.6,0.1-3.8,0.3c-1.3,0.2-2.5,0.6-3.7,1.3V-148.2z"/>
		<path d="M437.3-142.3h-5.8v-40h5.8l-0.1,16.4c0.8-0.4,1.7-0.7,2.5-0.8c0.9-0.2,1.7-0.2,2.6-0.2c0.6,0,1.4,0.1,2.5,0.2
			c1.1,0.1,2.3,0.3,3.5,0.4c1.3,0.1,2.5,0.3,3.8,0.4c1.2,0.1,2.3,0.2,3.2,0.2c0.8,0,1.7-0.1,2.7-0.2c1-0.1,1.9-0.4,2.7-0.8v-15.5
			h5.8v40h-5.8v-18.6c-0.9,0.4-1.8,0.7-2.7,0.8c-1,0.1-1.9,0.2-2.7,0.2c-0.9,0-2-0.1-3.2-0.2c-1.2-0.1-2.5-0.3-3.8-0.4
			c-1.3-0.1-2.4-0.3-3.5-0.4c-1.1-0.1-1.9-0.2-2.5-0.2c-0.9,0-1.7,0.1-2.6,0.2c-0.9,0.2-1.7,0.4-2.5,0.8V-142.3z"/>
		<path d="M478.4-142.3v-40h5.8v15c1.2,0.6,2.5,1.1,3.7,1.3c1.3,0.2,2.6,0.3,3.9,0.3h6.8c4.3,0,7.7,1,10.2,2.9
			c2.5,1.9,3.7,4.9,3.7,8.9c0,2.4-0.4,4.3-1.3,5.9c-0.9,1.5-2,2.7-3.3,3.6c-1.4,0.9-2.9,1.4-4.5,1.8c-1.7,0.3-3.3,0.5-4.9,0.5H478.4
			z M491.8-159.8c-1.3,0-2.6-0.1-3.9-0.3c-1.3-0.2-2.5-0.6-3.7-1.3v13.2h15c0.8,0,1.6-0.1,2.5-0.3c0.9-0.2,1.7-0.5,2.4-0.9
			c0.7-0.4,1.3-1,1.8-1.8c0.5-0.7,0.7-1.7,0.7-2.8c0-1.2-0.2-2.1-0.7-2.9c-0.5-0.7-1.1-1.3-1.8-1.8s-1.6-0.7-2.5-0.9
			c-0.9-0.2-1.9-0.3-2.9-0.3H491.8z"/>
		<path d="M573.4-162.5c0,3-0.5,5.9-1.6,8.4c-1.1,2.6-2.5,4.8-4.4,6.7c-1.9,1.9-4.1,3.4-6.6,4.4s-5.2,1.6-8.1,1.6
			c-2.7,0-5.2-0.5-7.6-1.4s-4.5-2.3-6.3-3.9c-1.8-1.7-3.3-3.7-4.5-6c-1.2-2.3-1.9-4.8-2.2-7.5h-5.4v17.9H521v-40h5.8v16.2h5.5
			c0.4-2.6,1.2-4.9,2.4-7.1c1.2-2.1,2.8-4,4.6-5.5c1.8-1.5,3.9-2.7,6.2-3.5c2.3-0.8,4.7-1.3,7.2-1.3c2.8,0,5.5,0.5,8,1.6
			c2.5,1.1,4.7,2.5,6.6,4.4c1.9,1.9,3.4,4.1,4.4,6.6C572.9-168.3,573.4-165.5,573.4-162.5z M567.9-162.6c0-2.2-0.4-4.2-1.2-6
			c-0.8-1.8-1.9-3.4-3.3-4.8c-1.4-1.3-3-2.4-4.9-3.1c-1.8-0.7-3.8-1.1-5.8-1.1c-2.1,0-4.1,0.4-6,1.1c-1.8,0.7-3.4,1.7-4.8,3
			c-1.4,1.3-2.4,2.9-3.2,4.7c-0.8,1.8-1.2,3.9-1.2,6.1c0,2.1,0.4,4.1,1.3,6c0.8,1.9,2,3.5,3.4,4.9c1.4,1.4,3,2.5,4.9,3.2
			c1.8,0.8,3.8,1.2,5.8,1.2c2.1,0,4.1-0.4,6-1.2c1.8-0.8,3.4-1.9,4.8-3.2c1.4-1.4,2.4-3,3.2-4.8
			C567.5-158.4,567.9-160.4,567.9-162.6z"/>
		<g>
			<path d="M224.5-124.1h5.8v40h-5.8V-115L201-84.1h-5.8v-40h5.8v30.8L224.5-124.1z"/>
			<path d="M276.1-95.1c0,2-0.4,3.7-1.2,5.1c-0.8,1.4-1.9,2.5-3.2,3.4c-1.3,0.9-2.8,1.5-4.4,1.9c-1.6,0.4-3.3,0.6-4.9,0.6h-20.3v-40
				h20.3c1.7,0,3.2,0.2,4.7,0.7c1.4,0.5,2.7,1.2,3.8,2.1c1.1,0.9,1.9,2.1,2.5,3.4c0.6,1.4,0.9,2.9,0.9,4.7c0,1.7-0.3,3.3-0.9,4.7
				c-0.6,1.4-1.5,2.5-2.7,3.2c0.7,0.3,1.4,0.8,2.1,1.4c0.7,0.6,1.3,1.3,1.8,2.2c0.5,0.9,0.9,1.8,1.2,2.9
				C276-97.7,276.1-96.5,276.1-95.1z M247.9-106c1.2-0.7,2.4-1.2,3.7-1.3c1.3-0.2,2.6-0.3,3.9-0.3h6.8c1.8,0,3.3-0.5,4.3-1.4
				c1.1-0.9,1.6-2.3,1.6-4.2c0-1.9-0.6-3.2-1.7-4c-1.1-0.8-2.5-1.1-4.3-1.1h-14.4V-106z M247.9-90h15c0.8,0,1.6-0.1,2.5-0.3
				c0.9-0.2,1.7-0.6,2.4-1.1c0.7-0.5,1.3-1.1,1.8-1.8c0.5-0.7,0.7-1.6,0.7-2.6c0-1.2-0.2-2.1-0.7-2.9c-0.5-0.7-1.1-1.3-1.8-1.8
				c-0.7-0.4-1.6-0.7-2.5-0.9c-0.9-0.2-1.9-0.3-2.9-0.3h-6.8c-1.3,0-2.6,0.1-3.8,0.3c-1.3,0.2-2.5,0.6-3.7,1.3V-90z"/>
			<path d="M291.6-109.2c1.2,0.6,2.5,1.1,3.7,1.3c1.3,0.2,2.6,0.3,3.9,0.3h5.2c4.3,0,7.7,1,10.2,2.9c2.5,1.9,3.7,4.9,3.7,8.9
				c0,2.4-0.4,4.3-1.3,5.9c-0.9,1.5-2,2.7-3.3,3.6c-1.4,0.9-2.9,1.4-4.5,1.8c-1.7,0.3-3.3,0.5-4.9,0.5h-18.7v-40h5.8V-109.2z
				 M305-90c0.8,0,1.6-0.1,2.5-0.3c0.9-0.2,1.7-0.5,2.4-0.9c0.7-0.4,1.3-1,1.8-1.8c0.5-0.7,0.7-1.7,0.7-2.8c0-1.2-0.2-2.1-0.7-2.9
				c-0.5-0.7-1.1-1.3-1.8-1.8c-0.8-0.4-1.6-0.7-2.5-0.9c-0.9-0.2-1.9-0.3-2.9-0.3h-5.2c-1.3,0-2.6-0.1-3.9-0.3
				c-1.3-0.2-2.5-0.6-3.7-1.3V-90H305z M323.5-84.1v-40h5.7v40H323.5z"/>
		</g>
	</g>
</g>
<path d="M154.7-161.7c-2.5-8.6-6.9-15.9-11.4-21.7c-4.1-5.5-8.9-10.3-14.4-14.3c-0.6-0.4-0.9-0.7-0.9-0.7l0,0
	c-11.2-7.9-24.8-12.6-39.5-12.6c-7.1,0-13.9,1.1-20.3,3.1c-7.8,2.4-14.2,6-19.2,9.5l0,0c0,0-0.8,0.5-2,1.5c-4.6,3.5-7.8,6.9-9.6,8.9
	c-1.1,1.2-2.1,2.5-3,3.7c-6.1,7.6-12.1,18.1-12.9,30.8c-0.2,2.3-0.1,32.8-0.1,32.8c0,1.8,1.2,3.4,2.9,3.7c2.3,0.4,4.3-1.3,4.3-3.5
	v-2.6v-19.2v-7.7l0-2.6c0-1.3,0.9-2.5,2.2-2.8c1.7-0.3,3.2,1,3.2,2.7v0.1h0v10.4v12.4v0.3c0,1.8,1.2,3.4,3,3.8
	c2.4,0.5,4.6-1.3,4.6-3.7v-1.5c0-0.1,0-0.1,0-0.2v-31.1h0.1c0.2-1.2,1.3-2.1,2.5-2.1s2.3,0.9,2.5,2.1h0v0.5v9.5l0,38.8
	c0,1.9,1.3,3.6,3.1,4c2.5,0.5,4.7-1.4,4.7-3.8v-28.4c0,0,0,0,0,0l0-9.1c0-1.2,0.8-2.3,1.9-2.6c1.7-0.4,3.2,0.9,3.2,2.5v0.1h0l0,24.3
	c0,1.9,1.3,3.6,3.1,4c2.5,0.5,4.7-1.4,4.7-3.8v-20.3h0v-0.5c0-1.6,1.1-3.1,2.6-3.4c2.1-0.4,3.9,1.2,3.9,3.2v11.7c0,0.1,0,0.1,0,0.2
	l0,5.4c0,1.9,1.3,3.6,3.1,4c2.5,0.5,4.7-1.4,4.7-3.8v-0.3c0-3.5,1.2-8.4,2.6-12.7c2.1-6.8,3.1-13.9,2.9-21c0-0.8-0.1-1.5,0-2v-0.7
	c0,0,0,0,0-0.1c0,0,0,0,0,0h0c0.1-1.8,1.5-3.2,3.2-3.2s3.2,1.4,3.2,3.2h0v14.5l0,0c0,0,0,0,0,0v0.8c0,0.1,0,0.2,0,0.2
	c-0.2,4.7-1.8,15.8-11,29.2c-1.4,1.6-2.6,3.3-3.8,5c0,0,0,0,0,0l0,0c-3.7,5.5-6.9,11.5-11.6,16.3c-7.8,8-12.3,15.5-28.1,15.8
	c-1.7,0-4.2-0.7-4.4,1.9c-0.1,0.8,0.3,1.6,0.8,1.8c44.7,15.2,103,3.6,108.8-5c0.6-0.9,0.5-1.5,0.1-2c-0.9-1.3-2.2-0.8-3.3-0.2
	c-4.6,2.2-82.4,10.1-48.5-20.9c2.6-2.4,4.6-5,7.9-6.5c6.6-3,13.7-4.2,20.7-5.7c0,4.2,0.1,16.5,0.1,16.5c0,1.9,1.3,3.6,3.1,4
	c2.5,0.5,4.7-1.4,4.7-3.8c0,0,0-11,0-18.7c0.5-0.1,0.9-0.3,1.4-0.4c1.4-0.5,2.8-1.2,4.2-2.1v4.2c0,1.9,1.3,3.6,3.1,4
	c2.5,0.5,4.7-1.4,4.7-3.8V-132c0-0.5,0.2-0.9,0.5-1.3c0,0,0,0,0-0.1c1.2-1.4,3.5-0.6,3.5,1.3v9.9c0,1.6,1,3.1,2.6,3.6
	c1.7,0.5,3.4-0.3,4.1-1.7c0.2-0.4,0.9-2.4,1.4-4.2C156.5-130.1,159.8-144.2,154.7-161.7z M100.2-125.1c-0.4,0-0.7,0-1.1,0
	c1.3-5,3.6-17.2,2.2-35.8v-10.7c0-1.1,0.7-2.1,1.7-2.4c1.5-0.4,2.9,0.8,2.9,2.2v0.5v23.6c0,1.9,1.3,3.6,3.1,4
	c2.5,0.5,4.7-1.4,4.7-3.8v-4.3c0,0,0-0.1,0-0.3c0,0,0,0,0-0.1v-16c0-0.9,0.7-1.7,1.7-1.7c0.9,0,1.7,0.7,1.7,1.7l0.1,13.6l-0.2,27.4
	C111.5-126,105.9-125.4,100.2-125.1z M129-130.8c0-0.1,0-0.2,0-0.2l-0.1-24.9c0,0,0,0,0-0.1v-0.6c0-1.5,1.3-2.8,2.8-2.8
	c1.5,0,2.8,1.3,2.8,2.8v0.2c0,0.1,0,0.2,0,0.3v3.3v10.8v7.4C133-133,131.1-131.7,129-130.8z"/>
</svg>
